<svg width="179" height="48" viewBox="0 0 179 48" fill="none" xmlns="http://www.w3.org/2000/svg">
<g clip-path="url(#clip0_93_8072)">
<path d="M104.127 8.1123H102.038L99.412 14.4915H99.3764L96.7508 8.1123H94.661L91.4639 20.6206H94.3574L96.0542 13.4909H96.0898L98.3939 18.8337H100.377L102.699 13.4909H102.734L104.431 20.6206H107.307L104.127 8.1123Z" fill="#8C64D8"/>
<path d="M112.303 12.0972C109.642 12.0972 107.677 13.8483 107.677 16.4929C107.677 19.1375 109.642 20.8887 112.303 20.8887C114.982 20.8887 116.947 19.1375 116.947 16.4929C116.947 13.8483 114.982 12.0972 112.303 12.0972ZM112.303 14.5631C113.392 14.5631 114.232 15.3136 114.232 16.4929C114.232 17.6723 113.392 18.4228 112.303 18.4228C111.231 18.4228 110.374 17.6723 110.374 16.4929C110.374 15.3136 111.231 14.5631 112.303 14.5631Z" fill="#8C64D8"/>
<path d="M126.427 12.3652H118.621V17.1363C118.621 17.9225 118.318 18.1369 117.889 18.1369H117.335V20.6386H118.318C120.122 20.6386 121.318 19.6915 121.318 17.6366V14.7954H123.73V20.6207H126.427V12.3652Z" fill="#8C64D8"/>
<path d="M132.257 12.0972C129.596 12.0972 127.631 13.8483 127.631 16.4929C127.631 19.1375 129.596 20.8887 132.257 20.8887C134.937 20.8887 136.901 19.1375 136.901 16.4929C136.901 13.8483 134.937 12.0972 132.257 12.0972ZM132.257 14.5631C133.347 14.5631 134.186 15.3136 134.186 16.4929C134.186 17.6723 133.347 18.4228 132.257 18.4228C131.186 18.4228 130.328 17.6723 130.328 16.4929C130.328 15.3136 131.186 14.5631 132.257 14.5631Z" fill="#8C64D8"/>
<path d="M145.942 18.6372V12.3652H144.835H141.173H138.53V16.35C138.53 17.2435 138.369 17.9403 137.976 18.6372H136.904V22.9437H139.155V20.7994H144.745V22.9437H146.996V18.6372H145.942ZM141.173 16.4215V14.7061H143.281V18.6372H140.691C141.012 17.9761 141.173 17.2792 141.173 16.4215Z" fill="#8C64D8"/>
<path d="M151.145 9.02393H149.109V11.4362H151.145V9.02393ZM154.307 9.02393H152.271V11.4362H154.307V9.02393ZM151.717 12.1153C149.181 12.1153 147.359 13.7413 147.359 16.5289C147.359 19.1556 149.199 20.8889 151.967 20.8889C153.378 20.8889 154.503 20.4601 155.379 19.924L154.396 17.8869C153.878 18.2264 153.003 18.6374 152.003 18.6374C150.895 18.6374 150.074 18.1728 149.895 17.1364H155.807V16.5289C155.807 13.5448 154.2 12.1153 151.717 12.1153ZM151.628 14.0272C152.503 14.0272 153.164 14.5812 153.199 15.5461H149.913C150.038 14.474 150.717 14.0272 151.628 14.0272Z" fill="#8C64D8"/>
<path d="M170.609 20.6207L166.929 16.1177L170.073 12.3652H166.751L164.322 15.6353V12.3652H161.785V15.6353L159.356 12.3652H156.034L159.178 16.1177L155.498 20.6207H158.981L161.785 16.8325V20.6207H164.322V16.8325L167.144 20.6207H170.609Z" fill="#8C64D8"/>
<path d="M175.803 14.6167H173.963V12.3652H171.266V20.6207H175.803C177.696 20.6207 179 19.6736 179 17.6187C179 15.5459 177.696 14.6167 175.803 14.6167ZM175.231 18.5478H173.963V16.6895H175.231C175.91 16.6895 176.285 16.9933 176.285 17.6187C176.285 18.2263 175.91 18.5478 175.231 18.5478Z" fill="#8C64D8"/>
<path d="M97.0189 26.5601H92.5537V39.0683H95.3221V34.7797H97.0189C100.18 34.7797 101.627 33.0107 101.627 30.5627C101.627 28.3111 100.18 26.5601 97.0189 26.5601ZM96.7868 32.278H95.3221V29.0795H96.7868C97.93 29.0795 98.6801 29.5263 98.6801 30.6162C98.6801 31.7241 97.93 32.278 96.7868 32.278Z" fill="#8C64D8"/>
<path d="M106.181 30.5449C103.519 30.5449 101.555 32.296 101.555 34.9406C101.555 37.5852 103.519 39.3365 106.181 39.3365C108.86 39.3365 110.825 37.5852 110.825 34.9406C110.825 32.296 108.86 30.5449 106.181 30.5449ZM106.181 33.0108C107.27 33.0108 108.11 33.7613 108.11 34.9406C108.11 36.1199 107.27 36.8706 106.181 36.8706C105.109 36.8706 104.252 36.1199 104.252 34.9406C104.252 33.7613 105.109 33.0108 106.181 33.0108Z" fill="#8C64D8"/>
<path d="M116.157 39.3365C117.318 39.3365 118.247 39.0505 119.14 38.5323L118.032 36.3701C117.532 36.6919 117.014 36.8706 116.282 36.8706C115.21 36.8706 114.264 36.1737 114.264 34.9406C114.264 33.7078 115.21 33.0108 116.282 33.0108C117.014 33.0108 117.532 33.1895 118.032 33.5111L119.14 31.3489C118.247 30.8307 117.318 30.5449 116.157 30.5449C113.513 30.5449 111.566 32.2781 111.566 34.9406C111.566 37.6031 113.513 39.3365 116.157 39.3365Z" fill="#8C64D8"/>
<path d="M123.832 39.3365C124.993 39.3365 125.922 39.0505 126.815 38.5323L125.707 36.3701C125.207 36.6919 124.689 36.8706 123.957 36.8706C122.885 36.8706 121.939 36.1737 121.939 34.9406C121.939 33.7078 122.885 33.0108 123.957 33.0108C124.689 33.0108 125.207 33.1895 125.707 33.5111L126.815 31.3489C125.922 30.8307 124.993 30.5449 123.832 30.5449C121.189 30.5449 119.242 32.2781 119.242 34.9406C119.242 37.6031 121.189 39.3365 123.832 39.3365Z" fill="#8C64D8"/>
<path d="M127.747 39.0684H130.122L133.623 34.6011H133.659V39.0684H136.356V30.813H133.98L130.479 35.2801H130.444V30.813H127.747V39.0684Z" fill="#8C64D8"/>
<path d="M138.02 39.0684H140.396L143.896 34.6011H143.932V39.0684H146.629V30.813H144.254L140.753 35.2801H140.717V30.813H138.02V39.0684Z" fill="#8C64D8"/>
<path d="M48.0244 0H40.0993L30.1423 24.1324H30.0067L20.0497 0H12.1246L0 47.3184H10.9731L17.408 20.3468H17.5435L26.2813 40.5585H33.8L42.6055 20.3468H42.741L49.1759 47.3184H60.0813L48.0244 0Z" fill="#8C64D8"/>
<path fill-rule="evenodd" clip-rule="evenodd" d="M51.1328 0L61.6715 7.95408e-05C73.7352 7.95408e-05 79.2559 6.539 79.2559 14.9462C79.2559 24.0873 73.7352 30.693 61.6715 30.693H58.3914L56.2614 21.3517H60.7853C65.1474 21.3517 68.0099 19.2833 68.0099 15.1464C68.0099 11.0762 65.1474 9.40813 60.7853 9.40813L53.6971 9.40804L51.1328 0Z" fill="#8C64D8"/>
</g>
<defs>
<clipPath id="clip0_93_8072">
<rect width="179" height="48" fill="white"/>
</clipPath>
</defs>
</svg>
