<svg width="24" height="24" viewBox="0 0 24 24" fill="none" xmlns="http://www.w3.org/2000/svg">
<path d="M16.4102 4.00023C18.3502 4.00023 19.9102 5.57023 19.9102 7.50023C19.9102 9.39023 18.4102 10.9302 16.5402 11.0002C16.4538 10.9902 16.3666 10.9902 16.2802 11.0002M18.3402 20.0002C19.0602 19.8502 19.7402 19.5602 20.3002 19.1302C21.8602 17.9602 21.8602 16.0302 20.3002 14.8602C19.7502 14.4402 19.0802 14.1602 18.3702 14.0002M9.16021 10.8702C9.06021 10.8602 8.94021 10.8602 8.83021 10.8702C7.68242 10.8313 6.59486 10.3471 5.79784 9.52019C5.00083 8.69332 4.55696 7.58869 4.56021 6.44023C4.56021 3.99023 6.54022 2.00023 9.00022 2.00023C10.1765 1.97902 11.3129 2.42593 12.1597 3.24265C13.0064 4.05937 13.494 5.179 13.5152 6.35523C13.5364 7.53147 13.0895 8.66796 12.2728 9.51468C11.4561 10.3614 10.3364 10.849 9.16021 10.8702ZM4.16021 14.5602C1.74021 16.1802 1.74021 18.8202 4.16021 20.4302C6.91021 22.2702 11.4202 22.2702 14.1702 20.4302C16.5902 18.8102 16.5902 16.1702 14.1702 14.5602C11.4302 12.7302 6.92021 12.7302 4.16021 14.5602Z" stroke="black" stroke-width="1.5" stroke-linecap="round" stroke-linejoin="round"/>
</svg>
