<svg width="22" height="20" viewBox="0 0 22 20" fill="none" xmlns="http://www.w3.org/2000/svg">
<path d="M7.27 1.99509V14.9951M14.44 4.61509V17.9951M1 5.77509V15.5051C1 17.4051 2.35 18.1851 3.99 17.2451L6.34 15.9051C6.85 15.6151 7.7 15.5851 8.23 15.8551L13.48 18.4851C14.01 18.7451 14.86 18.7251 15.37 18.4351L19.7 15.9551C20.25 15.6351 20.71 14.8551 20.71 14.2151V4.48509C20.71 2.58509 19.36 1.80509 17.72 2.74509L15.37 4.08509C14.86 4.37509 14.01 4.40509 13.48 4.13509L8.23 1.51509C7.7 1.25509 6.85 1.27509 6.34 1.56509L2.01 4.04509C1.45 4.36509 1 5.14509 1 5.77509Z" stroke="black" stroke-width="1.5" stroke-linecap="round" stroke-linejoin="round"/>
</svg>
