<svg width="43" height="42" viewBox="0 0 43 42" fill="none" xmlns="http://www.w3.org/2000/svg">
<circle cx="21.25" cy="21" r="21" fill="#F8F8F8"/>
<g clip-path="url(#clip0_93_8004)">
<path fill-rule="evenodd" clip-rule="evenodd" d="M25.7862 16.5841C25.9304 16.5235 26.0882 16.5025 26.2431 16.5235C26.3981 16.5445 26.5446 16.6067 26.6675 16.7035C26.7903 16.8004 26.8849 16.9284 26.9414 17.0742C26.998 17.22 27.0144 17.3783 26.9891 17.5326L25.6661 25.5576C25.5377 26.3316 24.6884 26.7756 23.9785 26.39C23.3846 26.0674 22.5026 25.5704 21.7093 25.0518C21.3126 24.7922 20.0976 23.961 20.2469 23.3695C20.3752 22.8637 22.4169 20.9632 23.5836 19.8333C24.0415 19.3894 23.8326 19.1333 23.2919 19.5416C21.9485 20.5555 19.7931 22.0972 19.0802 22.5312C18.4514 22.9139 18.1236 22.9792 17.7316 22.9139C17.0164 22.7949 16.3531 22.6106 15.8118 22.386C15.0803 22.0826 15.1159 21.077 15.8112 20.7841L25.7862 16.5841Z" fill="#8C64D7"/>
</g>
<defs>
<clipPath id="clip0_93_8004">
<rect width="14" height="14" fill="white" transform="translate(14.25 14)"/>
</clipPath>
</defs>
</svg>
