<svg width="43" height="42" viewBox="0 0 43 42" fill="none" xmlns="http://www.w3.org/2000/svg">
<circle cx="21.125" cy="21" r="21" fill="#F8F8F8"/>
<g clip-path="url(#clip0_93_7999)">
<mask id="path-2-inside-1_93_7999" fill="white">
<path fill-rule="evenodd" clip-rule="evenodd" d="M28.1583 16.1747C28.2613 15.8482 28.1583 15.6108 27.7023 15.6108H26.1861C25.8036 15.6108 25.627 15.8186 25.5239 16.041C25.5239 16.041 24.7439 17.9403 23.6548 19.1716C23.3015 19.5277 23.1397 19.6464 22.9483 19.6464C22.8453 19.6464 22.7127 19.5277 22.7127 19.2014V16.1594C22.7127 15.7738 22.5951 15.5957 22.2711 15.5957H19.8866C19.651 15.5957 19.5039 15.7738 19.5039 15.9518C19.5039 16.3227 20.0485 16.4119 20.1072 17.4504V19.7069C20.1072 20.1965 20.0204 20.286 19.8276 20.286C19.3125 20.286 18.0615 18.3719 17.311 16.191C17.1651 15.759 17.0169 15.5957 16.6341 15.5957H15.1034C14.6619 15.5957 14.5884 15.8033 14.5884 16.0259C14.5884 16.4266 15.1034 18.4443 16.9874 21.1149C18.2384 22.9389 20.0192 23.9192 21.6235 23.9192C22.5951 23.9192 22.7127 23.6965 22.7127 23.3257V21.9458C22.7127 21.5008 22.801 21.4267 23.1102 21.4267C23.3308 21.4267 23.7283 21.5451 24.6261 22.4206C25.6562 23.4591 25.8328 23.9339 26.407 23.9339H27.9229C28.3644 23.9339 28.5706 23.7113 28.4527 23.2811C28.3204 22.8508 27.8198 22.2278 27.1722 21.486C26.8189 21.0709 26.2891 20.6108 26.1273 20.3882C25.9067 20.0914 25.9654 19.9727 26.1273 19.7058C26.1125 19.7058 27.9672 17.0647 28.1583 16.1736"/>
</mask>
<path fill-rule="evenodd" clip-rule="evenodd" d="M28.1583 16.1747C28.2613 15.8482 28.1583 15.6108 27.7023 15.6108H26.1861C25.8036 15.6108 25.627 15.8186 25.5239 16.041C25.5239 16.041 24.7439 17.9403 23.6548 19.1716C23.3015 19.5277 23.1397 19.6464 22.9483 19.6464C22.8453 19.6464 22.7127 19.5277 22.7127 19.2014V16.1594C22.7127 15.7738 22.5951 15.5957 22.2711 15.5957H19.8866C19.651 15.5957 19.5039 15.7738 19.5039 15.9518C19.5039 16.3227 20.0485 16.4119 20.1072 17.4504V19.7069C20.1072 20.1965 20.0204 20.286 19.8276 20.286C19.3125 20.286 18.0615 18.3719 17.311 16.191C17.1651 15.759 17.0169 15.5957 16.6341 15.5957H15.1034C14.6619 15.5957 14.5884 15.8033 14.5884 16.0259C14.5884 16.4266 15.1034 18.4443 16.9874 21.1149C18.2384 22.9389 20.0192 23.9192 21.6235 23.9192C22.5951 23.9192 22.7127 23.6965 22.7127 23.3257V21.9458C22.7127 21.5008 22.801 21.4267 23.1102 21.4267C23.3308 21.4267 23.7283 21.5451 24.6261 22.4206C25.6562 23.4591 25.8328 23.9339 26.407 23.9339H27.9229C28.3644 23.9339 28.5706 23.7113 28.4527 23.2811C28.3204 22.8508 27.8198 22.2278 27.1722 21.486C26.8189 21.0709 26.2891 20.6108 26.1273 20.3882C25.9067 20.0914 25.9654 19.9727 26.1273 19.7058C26.1125 19.7058 27.9672 17.0647 28.1583 16.1736" fill="#8C64D7"/>
<path d="M25.5239 16.041L25.239 15.9089L25.2337 15.9218L25.5239 16.041ZM23.6548 19.1716L23.8775 19.3925L23.8838 19.3862L23.8897 19.3794L23.6548 19.1716ZM20.1072 17.4504H20.421V17.4415L20.4205 17.4327L20.1072 17.4504ZM17.311 16.191L17.0138 16.2914L17.0144 16.293L17.311 16.191ZM16.9874 21.1149L17.2461 20.9374L17.2437 20.934L16.9874 21.1149ZM24.6261 22.4206L24.8489 22.1996L24.8451 22.196L24.6261 22.4206ZM28.4527 23.2811L28.7554 23.1982L28.7526 23.1888L28.4527 23.2811ZM27.1722 21.486L26.9332 21.6893L26.9358 21.6924L27.1722 21.486ZM26.1273 20.3882L26.3811 20.2037L26.3791 20.201L26.1273 20.3882ZM26.1273 19.7058L26.3955 19.8684L26.6844 19.392H26.1273V19.7058ZM28.4575 16.2692C28.5198 16.0717 28.5505 15.8105 28.3972 15.5908C28.2404 15.366 27.9707 15.297 27.7023 15.297V15.9245C27.8899 15.9245 27.8997 15.9743 27.8826 15.9498C27.8763 15.9407 27.8804 15.939 27.8811 15.9594C27.8818 15.982 27.8777 16.0215 27.8591 16.0803L28.4575 16.2692ZM27.7023 15.297H26.1861V15.9245H27.7023V15.297ZM26.1861 15.297C25.9336 15.297 25.7253 15.3673 25.5603 15.4928C25.4002 15.6146 25.303 15.7716 25.2393 15.909L25.8085 16.1729C25.8479 16.088 25.8906 16.0299 25.9402 15.9922C25.9848 15.9582 26.0561 15.9245 26.1861 15.9245V15.297ZM25.5239 16.041C25.2337 15.9218 25.2337 15.9218 25.2337 15.9218C25.2337 15.9218 25.2337 15.9217 25.2337 15.9217C25.2337 15.9218 25.2337 15.9218 25.2337 15.9219C25.2336 15.922 25.2335 15.9222 25.2334 15.9226C25.2331 15.9233 25.2326 15.9245 25.2319 15.9261C25.2306 15.9293 25.2285 15.9343 25.2257 15.941C25.2201 15.9543 25.2116 15.9744 25.2002 16.0007C25.1776 16.0532 25.1438 16.1301 25.0997 16.2266C25.0115 16.4197 24.8825 16.6902 24.7202 16.9983C24.3936 17.6185 23.94 18.3756 23.4198 18.9637L23.8897 19.3794C24.4587 18.7362 24.9397 17.9281 25.2754 17.2907C25.4442 16.9702 25.5783 16.6889 25.6704 16.4874C25.7164 16.3865 25.7521 16.3055 25.7763 16.2493C25.7884 16.2212 25.7977 16.1993 25.8041 16.1843C25.8072 16.1767 25.8097 16.1709 25.8114 16.1669C25.8122 16.1648 25.8128 16.1633 25.8133 16.1622C25.8135 16.1616 25.8137 16.1611 25.8139 16.1608C25.8139 16.1606 25.814 16.1605 25.814 16.1604C25.814 16.1603 25.8141 16.1603 25.8141 16.1603C25.8141 16.1602 25.8141 16.1602 25.5239 16.041ZM23.432 18.9507C23.2553 19.1288 23.1451 19.228 23.0638 19.2835C22.9931 19.3319 22.9654 19.3327 22.9483 19.3327V19.9601C23.1226 19.9601 23.2716 19.9016 23.4179 19.8015C23.5537 19.7087 23.701 19.5704 23.8775 19.3925L23.432 18.9507ZM22.9483 19.3327C23.0238 19.3327 23.0551 19.3757 23.0545 19.3747C23.0523 19.3713 23.0264 19.3262 23.0264 19.2014H22.3989C22.3989 19.4029 22.4393 19.5803 22.5292 19.7179C22.6206 19.8578 22.7698 19.9601 22.9483 19.9601V19.3327ZM23.0264 19.2014V16.1594H22.3989V19.2014H23.0264ZM23.0264 16.1594C23.0264 15.949 22.9973 15.7211 22.8639 15.5441C22.7139 15.3451 22.4909 15.282 22.2711 15.282V15.9094C22.3249 15.9094 22.3508 15.917 22.3599 15.9207C22.3639 15.9223 22.3647 15.9231 22.3637 15.9224C22.3627 15.9216 22.3623 15.921 22.3629 15.9218C22.3643 15.9236 22.3741 15.9378 22.3833 15.978C22.3925 16.0188 22.3989 16.0773 22.3989 16.1594H23.0264ZM22.2711 15.282H19.8866V15.9094H22.2711V15.282ZM19.8866 15.282C19.4753 15.282 19.1902 15.6029 19.1902 15.9518H19.8176C19.8176 15.9482 19.8198 15.9378 19.8296 15.9279C19.834 15.9236 19.8397 15.9194 19.8477 15.9161C19.8553 15.9129 19.8678 15.9094 19.8866 15.9094V15.282ZM19.1902 15.9518C19.1902 16.1315 19.2596 16.2682 19.3301 16.3723C19.3637 16.4219 19.4014 16.4695 19.4334 16.5099C19.4674 16.5528 19.4982 16.5916 19.5293 16.6345C19.6411 16.7893 19.7683 17.0144 19.794 17.4681L20.4205 17.4327C20.3874 16.8478 20.2129 16.5091 20.0378 16.2669C19.9971 16.2107 19.9571 16.1606 19.9252 16.1203C19.8913 16.0776 19.8681 16.0477 19.8497 16.0205C19.8162 15.9711 19.8176 15.9576 19.8176 15.9518H19.1902ZM19.7935 17.4504V19.7069H20.421V17.4504H19.7935ZM19.7935 19.7069C19.7935 19.8217 19.7883 19.9026 19.7802 19.9591C19.7717 20.0175 19.7623 20.0334 19.7646 20.0292C19.7712 20.0172 19.7907 19.9933 19.8227 19.9788C19.8459 19.9682 19.8556 19.9722 19.8276 19.9722V20.5997C19.8959 20.5997 19.9888 20.5925 20.0825 20.5499C20.185 20.5033 20.2624 20.4265 20.3148 20.3309C20.4035 20.169 20.421 19.9485 20.421 19.7069H19.7935ZM19.8276 19.9722C19.8538 19.9722 19.8404 19.9811 19.7763 19.9384C19.7181 19.8996 19.6422 19.8344 19.5508 19.7375C19.3686 19.5444 19.1528 19.2556 18.9234 18.8897C18.4657 18.1597 17.9755 17.1577 17.6077 16.0889L17.0144 16.293C17.3971 17.4052 17.9076 18.4507 18.3918 19.223C18.6333 19.6082 18.8737 19.9342 19.0944 20.1681C19.2044 20.2847 19.3167 20.3861 19.4284 20.4606C19.5342 20.531 19.6726 20.5997 19.8276 20.5997V19.9722ZM17.6083 16.0906C17.5327 15.8669 17.4389 15.6522 17.2737 15.5004C17.0926 15.3339 16.8718 15.282 16.6341 15.282V15.9094C16.7792 15.9094 16.8239 15.9392 16.8491 15.9623C16.8902 16.0001 16.9434 16.083 17.0138 16.2914L17.6083 16.0906ZM16.6341 15.282H15.1034V15.9094H16.6341V15.282ZM15.1034 15.282C14.8413 15.282 14.6081 15.343 14.4498 15.5146C14.2946 15.6827 14.2747 15.8905 14.2747 16.0259H14.9021C14.9021 15.9387 14.9189 15.9314 14.9109 15.9401C14.8997 15.9522 14.924 15.9094 15.1034 15.9094V15.282ZM14.2747 16.0259C14.2747 16.1698 14.3164 16.4045 14.3955 16.6965C14.477 16.9977 14.6046 17.3833 14.7911 17.8382C15.1643 18.7484 15.7754 19.9412 16.731 21.2957L17.2437 20.934C16.3153 19.618 15.727 18.4667 15.3717 17.6002C15.1939 17.1667 15.0751 16.8059 15.0011 16.5326C14.9247 16.2502 14.9021 16.0824 14.9021 16.0259H14.2747ZM16.7286 21.2923C18.0247 23.182 19.8941 24.2329 21.6235 24.2329V23.6054C20.1443 23.6054 18.452 22.6957 17.2461 20.9374L16.7286 21.2923ZM21.6235 24.2329C22.1101 24.2329 22.4709 24.1819 22.7082 24.0214C22.9938 23.8282 23.0264 23.5383 23.0264 23.3257H22.3989C22.3989 23.4839 22.3727 23.4908 22.3567 23.5016C22.2923 23.5452 22.1085 23.6054 21.6235 23.6054V24.2329ZM23.0264 23.3257V21.9458H22.3989V23.3257H23.0264ZM23.0264 21.9458C23.0264 21.8418 23.0318 21.7763 23.0396 21.7351C23.0473 21.694 23.0534 21.6996 23.0382 21.7181C23.0183 21.7425 22.9959 21.749 22.999 21.7482C23.0101 21.7452 23.0404 21.7404 23.1102 21.7404V21.113C22.9601 21.113 22.7155 21.1218 22.5527 21.3206C22.4768 21.4133 22.4415 21.5208 22.423 21.6188C22.4045 21.7166 22.3989 21.8273 22.3989 21.9458H23.0264ZM23.1102 21.7404C23.1967 21.7404 23.5149 21.7752 24.4071 22.6452L24.8451 22.196C23.9417 21.315 23.4648 21.113 23.1102 21.113V21.7404ZM24.4034 22.6415C24.6555 22.8957 24.8556 23.1156 25.0243 23.3043C25.19 23.4896 25.3347 23.6555 25.464 23.7868C25.5944 23.9193 25.7286 24.0372 25.8832 24.1201C26.045 24.2067 26.215 24.2477 26.407 24.2477V23.6202C26.3118 23.6202 26.2445 23.6018 26.1795 23.567C26.1074 23.5283 26.0254 23.4627 25.9111 23.3466C25.7957 23.2294 25.6672 23.0819 25.4921 22.8861C25.32 22.6936 25.1118 22.4648 24.8488 22.1997L24.4034 22.6415ZM26.407 24.2477H27.9229V23.6202H26.407V24.2477ZM27.9229 24.2477C28.1841 24.2477 28.4592 24.1831 28.6377 23.9707C28.8229 23.7504 28.8281 23.4641 28.7553 23.1982L28.1501 23.3639C28.1721 23.444 28.1739 23.4967 28.1702 23.5276C28.1669 23.5555 28.1596 23.5644 28.1574 23.567C28.152 23.5734 28.1032 23.6202 27.9229 23.6202V24.2477ZM28.7526 23.1888C28.67 22.9203 28.4845 22.6214 28.2583 22.3143C28.0275 22.001 27.7333 21.6517 27.4085 21.2797L26.9358 21.6924C27.2587 22.0621 27.5386 22.3952 27.7531 22.6864C27.9722 22.9838 28.1031 23.2116 28.1529 23.3733L28.7526 23.1888ZM27.4111 21.2827C27.2242 21.063 26.9934 20.8346 26.7986 20.6419C26.5909 20.4364 26.4429 20.2887 26.381 20.2037L25.8735 20.5726C25.9735 20.7102 26.1714 20.904 26.3573 21.0879C26.5562 21.2847 26.7669 21.4939 26.9332 21.6893L27.4111 21.2827ZM26.3791 20.201C26.3325 20.1384 26.3116 20.0994 26.3024 20.0766C26.2982 20.0662 26.2971 20.0607 26.2969 20.0592C26.2967 20.0584 26.2967 20.0581 26.2967 20.0583C26.2967 20.0584 26.2967 20.0585 26.2967 20.0586C26.2967 20.0587 26.2967 20.0588 26.2967 20.0587C26.2967 20.0587 26.2968 20.0581 26.297 20.0568C26.2973 20.0555 26.2978 20.0532 26.2988 20.0499C26.3008 20.0429 26.3048 20.032 26.3124 20.0157C26.3289 19.9802 26.3541 19.9367 26.3955 19.8684L25.859 19.5431C25.788 19.6602 25.6849 19.8233 25.671 20.0128C25.6553 20.2266 25.7505 20.4071 25.8755 20.5753L26.3791 20.201ZM26.1273 19.392C26.1949 19.3994 26.3266 19.4635 26.3811 19.5214C26.4116 19.5733 26.4384 19.6659 26.4409 19.7024C26.4415 19.7601 26.4252 19.8036 26.4237 19.8081C26.4156 19.8314 26.4064 19.8485 26.4057 19.8497C26.403 19.8549 26.4009 19.8585 26.4002 19.8597C26.3993 19.8613 26.3987 19.8622 26.3987 19.8622C26.3987 19.8622 26.3994 19.861 26.4012 19.8583C26.4029 19.8556 26.4051 19.8522 26.408 19.8478C26.4197 19.83 26.438 19.8026 26.4629 19.7655C26.5121 19.6922 26.5847 19.5846 26.6724 19.4535C26.8479 19.1908 27.0861 18.8302 27.3311 18.441C27.5757 18.0524 27.8292 17.6319 28.0346 17.25C28.2344 16.8784 28.4069 16.5107 28.465 16.2394L27.8515 16.1078C27.8142 16.2821 27.6831 16.5787 27.4819 16.9529C27.2863 17.3168 27.0412 17.7237 26.8001 18.1067C26.5594 18.4892 26.3247 18.8445 26.1507 19.1048C26.0635 19.2352 25.9922 19.3409 25.942 19.4156C25.9173 19.4524 25.8971 19.4827 25.8832 19.5039C25.8765 19.5141 25.8695 19.5248 25.8638 19.5341C25.8617 19.5376 25.856 19.5469 25.8502 19.5579C25.8489 19.5605 25.8392 19.5785 25.8309 19.6024C25.8292 19.6072 25.8129 19.651 25.8135 19.7089C25.816 19.7454 25.8428 19.8381 25.8733 19.89C25.9278 19.948 26.0596 20.0121 26.1273 20.0195V19.392Z" fill="white" mask="url(#path-2-inside-1_93_7999)"/>
</g>
<defs>
<clipPath id="clip0_93_7999">
<rect width="14.8235" height="14.8235" fill="white" transform="translate(14.125 12.353)"/>
</clipPath>
</defs>
</svg>
