<svg width="370" height="104" viewBox="0 0 370 104" fill="none" xmlns="http://www.w3.org/2000/svg">
<rect width="370" height="104" rx="18.8686" fill="#CCE3FF"/>
<mask id="mask0_114_6331" style="mask-type:alpha" maskUnits="userSpaceOnUse" x="0" y="0" width="370" height="102">
<rect width="370" height="102" rx="18.8686" fill="#E7ECE1"/>
</mask>
<g mask="url(#mask0_114_6331)">
<ellipse cx="144.72" cy="-23.2396" rx="104.72" ry="89.7604" fill="#B9D9FF"/>
<ellipse cx="138.527" cy="-15.8341" rx="65.5268" ry="56.1659" fill="#A4CCFF"/>
<path d="M143.141 48.8487C140.985 48.8487 139.053 48.3727 137.345 47.4207C135.665 46.4407 134.363 45.1107 133.439 43.4307L136.211 40.7847C136.995 41.9887 138.003 42.9547 139.235 43.6827C140.467 44.3827 141.783 44.7327 143.183 44.7327C144.331 44.7327 145.353 44.4947 146.249 44.0187C147.145 43.5147 147.845 42.8287 148.349 41.9607C148.881 41.0927 149.147 40.0847 149.147 38.9367C149.147 37.8167 148.895 36.8367 148.391 35.9967C147.915 35.1287 147.243 34.4567 146.375 33.9807C145.535 33.5047 144.583 33.2667 143.519 33.2667C142.455 33.2667 141.447 33.5047 140.495 33.9807C139.571 34.4567 138.829 35.1287 138.269 35.9967H134.153L137.555 18.6087H152.129V22.8507H140.915L139.403 30.9567C139.907 30.4527 140.551 30.0467 141.335 29.7387C142.147 29.4307 143.071 29.2767 144.107 29.2767C145.983 29.2767 147.649 29.6827 149.105 30.4947C150.589 31.3067 151.751 32.4267 152.591 33.8547C153.459 35.2827 153.893 36.9347 153.893 38.8107C153.893 40.7987 153.417 42.5487 152.465 44.0607C151.513 45.5447 150.225 46.7207 148.601 47.5887C147.005 48.4287 145.185 48.8487 143.141 48.8487ZM181.048 48.4287V40.0707C180.208 40.4627 179.34 40.7567 178.444 40.9527C177.548 41.1207 176.54 41.2047 175.42 41.2047C173.068 41.2047 171.248 40.5887 169.96 39.3567C168.7 38.0967 168.07 36.2347 168.07 33.7707V26.4627H172.69V33.1827C172.69 34.7227 173.012 35.8567 173.656 36.5847C174.3 37.2847 175.336 37.6347 176.764 37.6347C177.548 37.6347 178.332 37.5507 179.116 37.3827C179.9 37.2147 180.544 36.9907 181.048 36.7107V26.4627H185.71V48.4287H181.048ZM201.253 48.8487C199.545 48.8487 197.991 48.5547 196.591 47.9667C195.219 47.3507 194.029 46.5247 193.021 45.4887C192.013 44.4247 191.229 43.2207 190.669 41.8767C190.137 40.5047 189.871 39.0487 189.871 37.5087C189.871 35.4367 190.347 33.5467 191.299 31.8387C192.251 30.1027 193.581 28.7167 195.289 27.6807C196.997 26.6167 198.999 26.0847 201.295 26.0847C203.591 26.0847 205.565 26.6167 207.217 27.6807C208.897 28.7167 210.199 30.0887 211.123 31.7967C212.047 33.5047 212.509 35.3387 212.509 37.2987C212.509 37.6347 212.495 37.9567 212.467 38.2647C212.439 38.5447 212.411 38.7827 212.383 38.9787H194.785C194.869 40.2667 195.219 41.4007 195.835 42.3807C196.479 43.3327 197.291 44.0887 198.271 44.6487C199.251 45.1807 200.301 45.4467 201.421 45.4467C202.653 45.4467 203.815 45.1387 204.907 44.5227C206.027 43.9067 206.783 43.0947 207.175 42.0867L211.123 43.2207C210.647 44.2847 209.919 45.2507 208.939 46.1187C207.987 46.9587 206.853 47.6307 205.537 48.1347C204.221 48.6107 202.793 48.8487 201.253 48.8487ZM194.659 35.9127H207.931C207.847 34.6527 207.483 33.5467 206.839 32.5947C206.223 31.6147 205.425 30.8587 204.445 30.3267C203.493 29.7667 202.429 29.4867 201.253 29.4867C200.105 29.4867 199.041 29.7667 198.061 30.3267C197.109 30.8587 196.325 31.6147 195.709 32.5947C195.093 33.5467 194.743 34.6527 194.659 35.9127ZM214.514 48.6387V44.5227C215.214 44.5227 215.844 44.3547 216.404 44.0187C216.964 43.6547 217.454 43.0667 217.874 42.2547C218.294 41.4147 218.63 40.2527 218.882 38.7687C219.134 37.2847 219.302 35.3947 219.386 33.0987L219.68 26.4627H235.346V48.4287H230.726V30.5367H223.754L223.67 33.5187C223.558 36.4587 223.292 38.9087 222.872 40.8687C222.452 42.8007 221.864 44.3407 221.108 45.4887C220.38 46.6087 219.456 47.4207 218.336 47.9247C217.244 48.4007 215.97 48.6387 214.514 48.6387Z" fill="#202020"/>
</g>
<path d="M101.492 69.8V84H99.2324V77.74H92.0724V84H89.8324V69.8H92.0724V75.74H99.2324V69.8H101.492ZM108.94 84.2C108.113 84.2 107.373 84.06 106.72 83.78C106.067 83.4867 105.5 83.0867 105.02 82.58C104.553 82.0733 104.193 81.5 103.94 80.86C103.687 80.2067 103.56 79.5133 103.56 78.78C103.56 78.0467 103.687 77.3533 103.94 76.7C104.193 76.0467 104.553 75.4733 105.02 74.98C105.5 74.4733 106.067 74.08 106.72 73.8C107.387 73.5067 108.127 73.36 108.94 73.36C109.753 73.36 110.487 73.5067 111.14 73.8C111.807 74.08 112.373 74.4733 112.84 74.98C113.32 75.4733 113.687 76.0467 113.94 76.7C114.193 77.3533 114.32 78.0467 114.32 78.78C114.32 79.5133 114.193 80.2067 113.94 80.86C113.687 81.5 113.32 82.0733 112.84 82.58C112.373 83.0867 111.807 83.4867 111.14 83.78C110.487 84.06 109.753 84.2 108.94 84.2ZM105.82 78.8C105.82 79.4667 105.96 80.0667 106.24 80.6C106.52 81.1333 106.893 81.5533 107.36 81.86C107.827 82.1667 108.353 82.32 108.94 82.32C109.513 82.32 110.033 82.1667 110.5 81.86C110.98 81.54 111.36 81.1133 111.64 80.58C111.92 80.0333 112.06 79.4333 112.06 78.78C112.06 78.1133 111.92 77.5133 111.64 76.98C111.36 76.4467 110.98 76.0267 110.5 75.72C110.033 75.4 109.513 75.24 108.94 75.24C108.353 75.24 107.827 75.4 107.36 75.72C106.893 76.04 106.52 76.4667 106.24 77C105.96 77.52 105.82 78.12 105.82 78.8ZM116.271 84V73.54H121.871C122.538 73.54 123.085 73.6667 123.511 73.92C123.951 74.16 124.278 74.4733 124.491 74.86C124.705 75.2333 124.811 75.6467 124.811 76.1C124.811 76.6733 124.678 77.18 124.411 77.62C124.145 78.06 123.751 78.3933 123.231 78.62C123.831 78.7933 124.318 79.1 124.691 79.54C125.078 79.9667 125.271 80.52 125.271 81.2C125.271 81.8133 125.125 82.3333 124.831 82.76C124.538 83.1733 124.118 83.4867 123.571 83.7C123.038 83.9 122.411 84 121.691 84H116.271ZM118.351 82.48H121.631C121.911 82.48 122.165 82.4133 122.391 82.28C122.631 82.1333 122.818 81.9467 122.951 81.72C123.085 81.48 123.151 81.2267 123.151 80.96C123.151 80.6667 123.085 80.4067 122.951 80.18C122.831 79.9533 122.658 79.7733 122.431 79.64C122.218 79.5067 121.965 79.44 121.671 79.44H118.351V82.48ZM118.351 78.02H121.311C121.591 78.02 121.838 77.9533 122.051 77.82C122.265 77.6733 122.431 77.48 122.551 77.24C122.671 77 122.731 76.7467 122.731 76.48C122.731 76.0933 122.605 75.76 122.351 75.48C122.098 75.2 121.765 75.06 121.351 75.06H118.351V78.02ZM127.365 84V73.54H129.565V76.98H131.545C132.785 76.98 133.732 77.2933 134.385 77.92C135.038 78.5467 135.365 79.3733 135.365 80.4C135.365 81.0933 135.225 81.7133 134.945 82.26C134.665 82.8067 134.252 83.2333 133.705 83.54C133.172 83.8467 132.505 84 131.705 84H127.365ZM129.565 82.3H131.365C131.805 82.3 132.158 82.22 132.425 82.06C132.692 81.8867 132.885 81.66 133.005 81.38C133.138 81.0867 133.205 80.7733 133.205 80.44C133.205 80.1067 133.145 79.8067 133.025 79.54C132.905 79.26 132.705 79.04 132.425 78.88C132.158 78.7067 131.798 78.62 131.345 78.62H129.565V82.3ZM137.085 84V73.56H139.285V84H137.085ZM143.175 73.54L145.655 77.12L145.835 77.46L146.015 77.12L148.475 73.54H150.855L147.095 78.78L150.895 84H148.515L146.015 80.44L145.835 80.12L145.655 80.44L143.155 84H140.775L144.575 78.8L140.815 73.54H143.175ZM162.066 84.2C161.253 84.2 160.513 84.06 159.846 83.78C159.193 83.4867 158.626 83.0867 158.146 82.58C157.666 82.0733 157.293 81.4933 157.026 80.84C156.773 80.1867 156.646 79.4933 156.646 78.76C156.646 77.7733 156.866 76.8733 157.306 76.06C157.759 75.2467 158.386 74.5933 159.186 74.1C159.999 73.6067 160.959 73.36 162.066 73.36C163.133 73.36 164.059 73.6 164.846 74.08C165.646 74.5467 166.233 75.1733 166.606 75.96L164.466 76.64C164.226 76.2 163.886 75.86 163.446 75.62C163.019 75.3667 162.546 75.24 162.026 75.24C161.439 75.24 160.906 75.3933 160.426 75.7C159.959 75.9933 159.586 76.4067 159.306 76.94C159.039 77.46 158.906 78.0667 158.906 78.76C158.906 79.4267 159.046 80.0333 159.326 80.58C159.606 81.1133 159.979 81.54 160.446 81.86C160.926 82.1667 161.459 82.32 162.046 82.32C162.406 82.32 162.753 82.26 163.086 82.14C163.433 82.0067 163.733 81.8333 163.986 81.62C164.239 81.3933 164.419 81.1467 164.526 80.88L166.686 81.52C166.459 82.04 166.119 82.5 165.666 82.9C165.226 83.3 164.699 83.62 164.086 83.86C163.486 84.0867 162.813 84.2 162.066 84.2ZM173.1 84.2C172.273 84.2 171.533 84.06 170.88 83.78C170.227 83.4867 169.66 83.0867 169.18 82.58C168.713 82.0733 168.353 81.5 168.1 80.86C167.847 80.2067 167.72 79.5133 167.72 78.78C167.72 78.0467 167.847 77.3533 168.1 76.7C168.353 76.0467 168.713 75.4733 169.18 74.98C169.66 74.4733 170.227 74.08 170.88 73.8C171.547 73.5067 172.287 73.36 173.1 73.36C173.913 73.36 174.647 73.5067 175.3 73.8C175.967 74.08 176.533 74.4733 177 74.98C177.48 75.4733 177.847 76.0467 178.1 76.7C178.353 77.3533 178.48 78.0467 178.48 78.78C178.48 79.5133 178.353 80.2067 178.1 80.86C177.847 81.5 177.48 82.0733 177 82.58C176.533 83.0867 175.967 83.4867 175.3 83.78C174.647 84.06 173.913 84.2 173.1 84.2ZM169.98 78.8C169.98 79.4667 170.12 80.0667 170.4 80.6C170.68 81.1333 171.053 81.5533 171.52 81.86C171.987 82.1667 172.513 82.32 173.1 82.32C173.673 82.32 174.193 82.1667 174.66 81.86C175.14 81.54 175.52 81.1133 175.8 80.58C176.08 80.0333 176.22 79.4333 176.22 78.78C176.22 78.1133 176.08 77.5133 175.8 76.98C175.52 76.4467 175.14 76.0267 174.66 75.72C174.193 75.4 173.673 75.24 173.1 75.24C172.513 75.24 171.987 75.4 171.52 75.72C171.053 76.04 170.68 76.4667 170.4 77C170.12 77.52 169.98 78.12 169.98 78.8ZM182.911 84V75.48H179.451V73.54H188.591V75.48H185.111V84H182.911ZM196.176 84.2C195.336 84.2 194.596 84 193.956 83.6C193.316 83.2 192.809 82.68 192.436 82.04V88.26H190.236V73.54H192.176V75.42C192.576 74.7933 193.096 74.2933 193.736 73.92C194.376 73.5467 195.089 73.36 195.876 73.36C196.596 73.36 197.256 73.5067 197.856 73.8C198.456 74.08 198.976 74.4733 199.416 74.98C199.856 75.4867 200.196 76.0667 200.436 76.72C200.689 77.36 200.816 78.04 200.816 78.76C200.816 79.76 200.616 80.6733 200.216 81.5C199.829 82.3267 199.283 82.9867 198.576 83.48C197.883 83.96 197.083 84.2 196.176 84.2ZM195.456 82.32C195.923 82.32 196.343 82.22 196.716 82.02C197.103 81.82 197.429 81.5533 197.696 81.22C197.976 80.8867 198.189 80.5067 198.336 80.08C198.483 79.6533 198.556 79.2133 198.556 78.76C198.556 78.28 198.476 77.8267 198.316 77.4C198.156 76.9733 197.923 76.6 197.616 76.28C197.323 75.96 196.976 75.7067 196.576 75.52C196.189 75.3333 195.763 75.24 195.296 75.24C195.016 75.24 194.723 75.2933 194.416 75.4C194.109 75.5067 193.823 75.6533 193.556 75.84C193.289 76.0267 193.056 76.2467 192.856 76.5C192.656 76.7533 192.516 77.02 192.436 77.3V80.04C192.623 80.4667 192.869 80.8533 193.176 81.2C193.483 81.5333 193.836 81.8067 194.236 82.02C194.636 82.22 195.043 82.32 195.456 82.32ZM203.863 88.44C203.623 88.44 203.37 88.4067 203.103 88.34C202.836 88.2733 202.556 88.1733 202.263 88.04L202.823 86.4C202.983 86.48 203.136 86.54 203.283 86.58C203.43 86.62 203.563 86.64 203.683 86.64C204.016 86.64 204.316 86.5 204.583 86.22C204.863 85.9533 205.11 85.5467 205.323 85L205.723 83.92L201.303 73.54H203.603L206.803 81.76L209.643 73.54H211.763L207.163 85.6C206.936 86.2267 206.65 86.7467 206.303 87.16C205.97 87.5733 205.596 87.8867 205.183 88.1C204.77 88.3267 204.33 88.44 203.863 88.44ZM212.381 86.5V82.06H212.621C212.901 82.06 213.161 81.98 213.401 81.82C213.641 81.66 213.854 81.3867 214.041 81C214.227 80.6 214.381 80.0533 214.501 79.36C214.621 78.6533 214.694 77.7667 214.721 76.7L214.841 73.54H222.301V82.06H223.741V86.5H221.801V84H214.301V86.5H212.381ZM215.521 82.06H220.101V75.44H216.781L216.721 76.9C216.681 77.9133 216.607 78.7667 216.501 79.46C216.407 80.1533 216.274 80.7067 216.101 81.12C215.941 81.5333 215.747 81.8467 215.521 82.06ZM225.607 84V73.54H227.807V77.7H232.667V73.54H234.867V84H232.667V79.6H227.807V84H225.607ZM237.521 84V73.56H239.721V81.06L245.021 73.54H247.021V84H244.821V76.66L239.581 84H237.521ZM249.65 84V73.54H251.83V77.68H252.87L255.95 73.54H258.39L254.57 78.6L258.83 84H256.29L252.85 79.66H251.83V84H249.65ZM264.663 84.2C263.836 84.2 263.096 84.06 262.443 83.78C261.789 83.4867 261.223 83.0867 260.743 82.58C260.276 82.0733 259.916 81.5 259.663 80.86C259.409 80.2067 259.283 79.5133 259.283 78.78C259.283 78.0467 259.409 77.3533 259.663 76.7C259.916 76.0467 260.276 75.4733 260.743 74.98C261.223 74.4733 261.789 74.08 262.443 73.8C263.109 73.5067 263.849 73.36 264.663 73.36C265.476 73.36 266.209 73.5067 266.863 73.8C267.529 74.08 268.096 74.4733 268.563 74.98C269.043 75.4733 269.409 76.0467 269.663 76.7C269.916 77.3533 270.043 78.0467 270.043 78.78C270.043 79.5133 269.916 80.2067 269.663 80.86C269.409 81.5 269.043 82.0733 268.563 82.58C268.096 83.0867 267.529 83.4867 266.863 83.78C266.209 84.06 265.476 84.2 264.663 84.2ZM261.543 78.8C261.543 79.4667 261.683 80.0667 261.963 80.6C262.243 81.1333 262.616 81.5533 263.083 81.86C263.549 82.1667 264.076 82.32 264.663 82.32C265.236 82.32 265.756 82.1667 266.223 81.86C266.703 81.54 267.083 81.1133 267.363 80.58C267.643 80.0333 267.783 79.4333 267.783 78.78C267.783 78.1133 267.643 77.5133 267.363 76.98C267.083 76.4467 266.703 76.0267 266.223 75.72C265.756 75.4 265.236 75.24 264.663 75.24C264.076 75.24 263.549 75.4 263.083 75.72C262.616 76.04 262.243 76.4667 261.963 77C261.683 77.52 261.543 78.12 261.543 78.8ZM271.994 84V73.54H277.594C278.26 73.54 278.807 73.6667 279.234 73.92C279.674 74.16 280 74.4733 280.214 74.86C280.427 75.2333 280.534 75.6467 280.534 76.1C280.534 76.6733 280.4 77.18 280.134 77.62C279.867 78.06 279.474 78.3933 278.954 78.62C279.554 78.7933 280.04 79.1 280.414 79.54C280.8 79.9667 280.994 80.52 280.994 81.2C280.994 81.8133 280.847 82.3333 280.554 82.76C280.26 83.1733 279.84 83.4867 279.294 83.7C278.76 83.9 278.134 84 277.414 84H271.994ZM274.074 82.48H277.354C277.634 82.48 277.887 82.4133 278.114 82.28C278.354 82.1333 278.54 81.9467 278.674 81.72C278.807 81.48 278.874 81.2267 278.874 80.96C278.874 80.6667 278.807 80.4067 278.674 80.18C278.554 79.9533 278.38 79.7733 278.154 79.64C277.94 79.5067 277.687 79.44 277.394 79.44H274.074V82.48ZM274.074 78.02H277.034C277.314 78.02 277.56 77.9533 277.774 77.82C277.987 77.6733 278.154 77.48 278.274 77.24C278.394 77 278.454 76.7467 278.454 76.48C278.454 76.0933 278.327 75.76 278.074 75.48C277.82 75.2 277.487 75.06 277.074 75.06H274.074V78.02Z" fill="#202020"/>
</svg>
