<svg width="370" height="104" viewBox="0 0 370 104" fill="none" xmlns="http://www.w3.org/2000/svg">
<rect width="370" height="104" rx="18.8686" fill="#FFD5BF"/>
<mask id="mask0_114_6333" style="mask-type:alpha" maskUnits="userSpaceOnUse" x="0" y="0" width="370" height="102">
<rect width="370" height="102" rx="18.8686" fill="#E1ECE4"/>
</mask>
<g mask="url(#mask0_114_6333)">
<ellipse cx="352.633" cy="20.2453" rx="104.72" ry="89.7604" fill="#FFC2A3"/>
<ellipse cx="363.527" cy="2.16587" rx="65.5268" ry="56.1659" fill="#FFB087"/>
<path d="M118.268 28.7307C118.268 30.5787 118.716 32.2587 119.612 33.7707C120.536 35.2827 121.782 36.4867 123.35 37.3827C124.946 38.2787 126.696 38.7267 128.6 38.7267C129.664 38.7267 130.644 38.5587 131.54 38.2227C132.464 37.8867 133.276 37.4107 133.976 36.7947C134.676 36.1787 135.222 35.4647 135.614 34.6527C135.614 36.7807 135.32 38.6147 134.732 40.1547C134.144 41.6667 133.332 42.8147 132.296 43.5987C131.26 44.3827 130.042 44.7747 128.642 44.7747C127.298 44.7747 126.052 44.4247 124.904 43.7247C123.756 43.0247 122.86 42.1007 122.216 40.9527L119.486 43.8087C120.466 45.4047 121.754 46.6507 123.35 47.5467C124.946 48.4147 126.696 48.8487 128.6 48.8487C130.896 48.8487 132.884 48.2047 134.564 46.9167C136.272 45.6007 137.588 43.6687 138.512 41.1207C139.464 38.5727 139.94 35.3947 139.94 31.5867C139.94 28.8147 139.478 26.4487 138.554 24.4887C137.658 22.5287 136.398 21.0307 134.774 19.9947C133.178 18.9307 131.274 18.3987 129.062 18.3987C127.046 18.3987 125.212 18.8607 123.56 19.7847C121.936 20.6807 120.648 21.9127 119.696 23.4807C118.744 25.0487 118.268 26.7987 118.268 28.7307ZM129.02 22.3047C130.168 22.3047 131.218 22.5987 132.17 23.1867C133.15 23.7747 133.934 24.5587 134.522 25.5387C135.11 26.4907 135.404 27.5547 135.404 28.7307C135.404 29.8507 135.11 30.8867 134.522 31.8387C133.962 32.7907 133.192 33.5607 132.212 34.1487C131.26 34.7087 130.21 34.9887 129.062 34.9887C127.914 34.9887 126.85 34.7087 125.87 34.1487C124.918 33.5607 124.148 32.7907 123.56 31.8387C123 30.8867 122.72 29.8367 122.72 28.6887C122.72 27.5407 123 26.4767 123.56 25.4967C124.148 24.5167 124.918 23.7467 125.87 23.1867C126.822 22.5987 127.872 22.3047 129.02 22.3047ZM153.024 53.6787V44.3547H153.528C154.116 44.3547 154.662 44.1867 155.166 43.8507C155.67 43.5147 156.118 42.9407 156.51 42.1287C156.902 41.2887 157.224 40.1407 157.476 38.6847C157.728 37.2007 157.882 35.3387 157.938 33.0987L158.19 26.4627H173.856V44.3547H176.88V53.6787H172.806V48.4287H157.056V53.6787H153.024ZM159.618 44.3547H169.236V30.4527H162.264L162.138 33.5187C162.054 35.6467 161.9 37.4387 161.676 38.8947C161.48 40.3507 161.2 41.5127 160.836 42.3807C160.5 43.2487 160.094 43.9067 159.618 44.3547ZM180.799 48.4287V26.4627H185.419V35.1987H195.625V26.4627H200.245V48.4287H195.625V39.1887H185.419V48.4287H180.799ZM215.773 48.8487C214.065 48.8487 212.511 48.5547 211.111 47.9667C209.739 47.3507 208.549 46.5247 207.541 45.4887C206.533 44.4247 205.749 43.2207 205.189 41.8767C204.657 40.5047 204.391 39.0487 204.391 37.5087C204.391 35.4367 204.867 33.5467 205.819 31.8387C206.771 30.1027 208.101 28.7167 209.809 27.6807C211.517 26.6167 213.519 26.0847 215.815 26.0847C218.111 26.0847 220.085 26.6167 221.737 27.6807C223.417 28.7167 224.719 30.0887 225.643 31.7967C226.567 33.5047 227.029 35.3387 227.029 37.2987C227.029 37.6347 227.015 37.9567 226.987 38.2647C226.959 38.5447 226.931 38.7827 226.903 38.9787H209.305C209.389 40.2667 209.739 41.4007 210.355 42.3807C210.999 43.3327 211.811 44.0887 212.791 44.6487C213.771 45.1807 214.821 45.4467 215.941 45.4467C217.173 45.4467 218.335 45.1387 219.427 44.5227C220.547 43.9067 221.303 43.0947 221.695 42.0867L225.643 43.2207C225.167 44.2847 224.439 45.2507 223.459 46.1187C222.507 46.9587 221.373 47.6307 220.057 48.1347C218.741 48.6107 217.313 48.8487 215.773 48.8487ZM209.179 35.9127H222.451C222.367 34.6527 222.003 33.5467 221.359 32.5947C220.743 31.6147 219.945 30.8587 218.965 30.3267C218.013 29.7667 216.949 29.4867 215.773 29.4867C214.625 29.4867 213.561 29.7667 212.581 30.3267C211.629 30.8587 210.845 31.6147 210.229 32.5947C209.613 33.5467 209.263 34.6527 209.179 35.9127ZM230.797 48.4287V26.5047H235.417V42.2547L246.547 26.4627H250.747V48.4287H246.127V33.0147L235.123 48.4287H230.797ZM240.793 24.1947C238.721 24.1947 237.111 23.6767 235.963 22.6407C234.843 21.6047 234.283 20.3027 234.283 18.7347H237.307C237.307 19.5467 237.573 20.2187 238.105 20.7507C238.665 21.2827 239.561 21.5487 240.793 21.5487C241.997 21.5487 242.851 21.2967 243.355 20.7927C243.887 20.2887 244.209 19.6027 244.321 18.7347H247.345C247.345 20.3027 246.771 21.6047 245.623 22.6407C244.503 23.6767 242.893 24.1947 240.793 24.1947Z" fill="#202020"/>
</g>
<path d="M48.9324 76.8C48.9324 75.9333 49.0858 75.0867 49.3924 74.26C49.6991 73.42 50.1458 72.66 50.7324 71.98C51.3324 71.2867 52.0591 70.74 52.9124 70.34C53.7658 69.9267 54.7324 69.72 55.8124 69.72C57.0924 69.72 58.1991 70.0133 59.1324 70.6C60.0658 71.1733 60.7591 71.9133 61.2124 72.82L59.4524 74C59.1858 73.4267 58.8458 72.9733 58.4324 72.64C58.0324 72.3067 57.5924 72.0733 57.1124 71.94C56.6458 71.8067 56.1858 71.74 55.7324 71.74C54.9858 71.74 54.3324 71.8933 53.7724 72.2C53.2124 72.4933 52.7391 72.8867 52.3524 73.38C51.9791 73.8733 51.6924 74.4267 51.4924 75.04C51.3058 75.6533 51.2124 76.2667 51.2124 76.88C51.2124 77.56 51.3258 78.22 51.5524 78.86C51.7791 79.4867 52.0924 80.0467 52.4924 80.54C52.9058 81.02 53.3924 81.4 53.9524 81.68C54.5124 81.96 55.1258 82.1 55.7924 82.1C56.2458 82.1 56.7191 82.02 57.2124 81.86C57.7058 81.7 58.1591 81.4533 58.5724 81.12C58.9991 80.7733 59.3324 80.32 59.5724 79.76L61.4324 80.82C61.1391 81.5267 60.6791 82.1267 60.0524 82.62C59.4391 83.1133 58.7458 83.4867 57.9724 83.74C57.2124 83.9933 56.4591 84.12 55.7124 84.12C54.7124 84.12 53.7991 83.9133 52.9724 83.5C52.1458 83.0733 51.4324 82.5133 50.8324 81.82C50.2324 81.1133 49.7658 80.3267 49.4324 79.46C49.0991 78.58 48.9324 77.6933 48.9324 76.8ZM69.1643 84.2C68.3243 84.2 67.5843 84 66.9443 83.6C66.3043 83.2 65.7976 82.68 65.4243 82.04V88.26H63.2243V73.54H65.1643V75.42C65.5643 74.7933 66.0843 74.2933 66.7243 73.92C67.3643 73.5467 68.0776 73.36 68.8643 73.36C69.5843 73.36 70.2443 73.5067 70.8443 73.8C71.4443 74.08 71.9643 74.4733 72.4043 74.98C72.8443 75.4867 73.1843 76.0667 73.4243 76.72C73.6776 77.36 73.8043 78.04 73.8043 78.76C73.8043 79.76 73.6043 80.6733 73.2043 81.5C72.8176 82.3267 72.271 82.9867 71.5643 83.48C70.871 83.96 70.071 84.2 69.1643 84.2ZM68.4443 82.32C68.911 82.32 69.331 82.22 69.7043 82.02C70.091 81.82 70.4176 81.5533 70.6843 81.22C70.9643 80.8867 71.1776 80.5067 71.3243 80.08C71.471 79.6533 71.5443 79.2133 71.5443 78.76C71.5443 78.28 71.4643 77.8267 71.3043 77.4C71.1443 76.9733 70.911 76.6 70.6043 76.28C70.311 75.96 69.9643 75.7067 69.5643 75.52C69.1776 75.3333 68.751 75.24 68.2843 75.24C68.0043 75.24 67.711 75.2933 67.4043 75.4C67.0976 75.5067 66.811 75.6533 66.5443 75.84C66.2776 76.0267 66.0443 76.2467 65.8443 76.5C65.6443 76.7533 65.5043 77.02 65.4243 77.3V80.04C65.611 80.4667 65.8576 80.8533 66.1643 81.2C66.471 81.5333 66.8243 81.8067 67.2243 82.02C67.6243 82.22 68.031 82.32 68.4443 82.32ZM80.5229 84.2C79.7096 84.2 78.9696 84.06 78.3029 83.78C77.6496 83.4867 77.0829 83.0933 76.6029 82.6C76.1229 82.0933 75.7496 81.52 75.4829 80.88C75.2296 80.2267 75.1029 79.5333 75.1029 78.8C75.1029 77.8133 75.3296 76.9133 75.7829 76.1C76.2362 75.2733 76.8696 74.6133 77.6829 74.12C78.4962 73.6133 79.4496 73.36 80.5429 73.36C81.6362 73.36 82.5762 73.6133 83.3629 74.12C84.1629 74.6133 84.7829 75.2667 85.2229 76.08C85.6629 76.8933 85.8829 77.7667 85.8829 78.7C85.8829 78.86 85.8762 79.0133 85.8629 79.16C85.8496 79.2933 85.8362 79.4067 85.8229 79.5H77.4429C77.4829 80.1133 77.6496 80.6533 77.9429 81.12C78.2496 81.5733 78.6362 81.9333 79.1029 82.2C79.5696 82.4533 80.0696 82.58 80.6029 82.58C81.1896 82.58 81.7429 82.4333 82.2629 82.14C82.7962 81.8467 83.1562 81.46 83.3429 80.98L85.2229 81.52C84.9962 82.0267 84.6496 82.4867 84.1829 82.9C83.7296 83.3 83.1896 83.62 82.5629 83.86C81.9362 84.0867 81.2562 84.2 80.5229 84.2ZM77.3829 78.04H83.7029C83.6629 77.44 83.4896 76.9133 83.1829 76.46C82.8896 75.9933 82.5096 75.6333 82.0429 75.38C81.5896 75.1133 81.0829 74.98 80.5229 74.98C79.9762 74.98 79.4696 75.1133 79.0029 75.38C78.5496 75.6333 78.1762 75.9933 77.8829 76.46C77.5896 76.9133 77.4229 77.44 77.3829 78.04ZM86.6774 86.5V82.06H86.9174C87.1974 82.06 87.4574 81.98 87.6974 81.82C87.9374 81.66 88.1508 81.3867 88.3374 81C88.5241 80.6 88.6774 80.0533 88.7974 79.36C88.9174 78.6533 88.9908 77.7667 89.0174 76.7L89.1374 73.54H96.5974V82.06H98.0374V86.5H96.0974V84H88.5974V86.5H86.6774ZM89.8174 82.06H94.3974V75.44H91.0774L91.0174 76.9C90.9774 77.9133 90.9041 78.7667 90.7974 79.46C90.7041 80.1533 90.5708 80.7067 90.3974 81.12C90.2374 81.5333 90.0441 81.8467 89.8174 82.06ZM99.904 84V73.54H102.104V77.7H106.964V73.54H109.164V84H106.964V79.6H102.104V84H99.904ZM116.558 84.2C115.745 84.2 115.005 84.06 114.338 83.78C113.685 83.4867 113.118 83.0933 112.638 82.6C112.158 82.0933 111.785 81.52 111.518 80.88C111.265 80.2267 111.138 79.5333 111.138 78.8C111.138 77.8133 111.365 76.9133 111.818 76.1C112.271 75.2733 112.905 74.6133 113.718 74.12C114.531 73.6133 115.485 73.36 116.578 73.36C117.671 73.36 118.611 73.6133 119.398 74.12C120.198 74.6133 120.818 75.2667 121.258 76.08C121.698 76.8933 121.918 77.7667 121.918 78.7C121.918 78.86 121.911 79.0133 121.898 79.16C121.885 79.2933 121.871 79.4067 121.858 79.5H113.478C113.518 80.1133 113.685 80.6533 113.978 81.12C114.285 81.5733 114.671 81.9333 115.138 82.2C115.605 82.4533 116.105 82.58 116.638 82.58C117.225 82.58 117.778 82.4333 118.298 82.14C118.831 81.8467 119.191 81.46 119.378 80.98L121.258 81.52C121.031 82.0267 120.685 82.4867 120.218 82.9C119.765 83.3 119.225 83.62 118.598 83.86C117.971 84.0867 117.291 84.2 116.558 84.2ZM113.418 78.04H119.738C119.698 77.44 119.525 76.9133 119.218 76.46C118.925 75.9933 118.545 75.6333 118.078 75.38C117.625 75.1133 117.118 74.98 116.558 74.98C116.011 74.98 115.505 75.1133 115.038 75.38C114.585 75.6333 114.211 75.9933 113.918 76.46C113.625 76.9133 113.458 77.44 113.418 78.04ZM128.453 84.2C127.639 84.2 126.899 84.06 126.233 83.78C125.579 83.4867 125.013 83.0933 124.533 82.6C124.053 82.0933 123.679 81.52 123.413 80.88C123.159 80.2267 123.033 79.5333 123.033 78.8C123.033 77.8133 123.259 76.9133 123.713 76.1C124.166 75.2733 124.799 74.6133 125.613 74.12C126.426 73.6133 127.379 73.36 128.473 73.36C129.566 73.36 130.506 73.6133 131.293 74.12C132.093 74.6133 132.713 75.2667 133.153 76.08C133.593 76.8933 133.813 77.7667 133.813 78.7C133.813 78.86 133.806 79.0133 133.793 79.16C133.779 79.2933 133.766 79.4067 133.753 79.5H125.373C125.413 80.1133 125.579 80.6533 125.873 81.12C126.179 81.5733 126.566 81.9333 127.033 82.2C127.499 82.4533 127.999 82.58 128.533 82.58C129.119 82.58 129.673 82.4333 130.193 82.14C130.726 81.8467 131.086 81.46 131.273 80.98L133.153 81.52C132.926 82.0267 132.579 82.4867 132.113 82.9C131.659 83.3 131.119 83.62 130.493 83.86C129.866 84.0867 129.186 84.2 128.453 84.2ZM125.313 78.04H131.633C131.593 77.44 131.419 76.9133 131.113 76.46C130.819 75.9933 130.439 75.6333 129.973 75.38C129.519 75.1133 129.013 74.98 128.453 74.98C127.906 74.98 127.399 75.1133 126.933 75.38C126.479 75.6333 126.106 75.9933 125.813 76.46C125.519 76.9133 125.353 77.44 125.313 78.04ZM140.549 84V73.54H146.149C146.815 73.54 147.362 73.6667 147.789 73.92C148.229 74.16 148.555 74.4733 148.769 74.86C148.982 75.2333 149.089 75.6467 149.089 76.1C149.089 76.6733 148.955 77.18 148.689 77.62C148.422 78.06 148.029 78.3933 147.509 78.62C148.109 78.7933 148.595 79.1 148.969 79.54C149.355 79.9667 149.549 80.52 149.549 81.2C149.549 81.8133 149.402 82.3333 149.109 82.76C148.815 83.1733 148.395 83.4867 147.849 83.7C147.315 83.9 146.689 84 145.969 84H140.549ZM142.629 82.48H145.909C146.189 82.48 146.442 82.4133 146.669 82.28C146.909 82.1333 147.095 81.9467 147.229 81.72C147.362 81.48 147.429 81.2267 147.429 80.96C147.429 80.6667 147.362 80.4067 147.229 80.18C147.109 79.9533 146.935 79.7733 146.709 79.64C146.495 79.5067 146.242 79.44 145.949 79.44H142.629V82.48ZM142.629 78.02H145.589C145.869 78.02 146.115 77.9533 146.329 77.82C146.542 77.6733 146.709 77.48 146.829 77.24C146.949 77 147.009 76.7467 147.009 76.48C147.009 76.0933 146.882 75.76 146.629 75.48C146.375 75.2 146.042 75.06 145.629 75.06H142.629V78.02ZM157.582 84.2C156.742 84.2 156.002 84 155.362 83.6C154.722 83.2 154.216 82.68 153.842 82.04V88.26H151.642V73.54H153.582V75.42C153.982 74.7933 154.502 74.2933 155.142 73.92C155.782 73.5467 156.496 73.36 157.282 73.36C158.002 73.36 158.662 73.5067 159.262 73.8C159.862 74.08 160.382 74.4733 160.822 74.98C161.262 75.4867 161.602 76.0667 161.842 76.72C162.096 77.36 162.222 78.04 162.222 78.76C162.222 79.76 162.022 80.6733 161.622 81.5C161.236 82.3267 160.689 82.9867 159.982 83.48C159.289 83.96 158.489 84.2 157.582 84.2ZM156.862 82.32C157.329 82.32 157.749 82.22 158.122 82.02C158.509 81.82 158.836 81.5533 159.102 81.22C159.382 80.8867 159.596 80.5067 159.742 80.08C159.889 79.6533 159.962 79.2133 159.962 78.76C159.962 78.28 159.882 77.8267 159.722 77.4C159.562 76.9733 159.329 76.6 159.022 76.28C158.729 75.96 158.382 75.7067 157.982 75.52C157.596 75.3333 157.169 75.24 156.702 75.24C156.422 75.24 156.129 75.2933 155.822 75.4C155.516 75.5067 155.229 75.6533 154.962 75.84C154.696 76.0267 154.462 76.2467 154.262 76.5C154.062 76.7533 153.922 77.02 153.842 77.3V80.04C154.029 80.4667 154.276 80.8533 154.582 81.2C154.889 81.5333 155.242 81.8067 155.642 82.02C156.042 82.22 156.449 82.32 156.862 82.32ZM168.941 84.2C168.128 84.2 167.388 84.06 166.721 83.78C166.068 83.4867 165.501 83.0933 165.021 82.6C164.541 82.0933 164.168 81.52 163.901 80.88C163.648 80.2267 163.521 79.5333 163.521 78.8C163.521 77.8133 163.748 76.9133 164.201 76.1C164.654 75.2733 165.288 74.6133 166.101 74.12C166.914 73.6133 167.868 73.36 168.961 73.36C170.054 73.36 170.994 73.6133 171.781 74.12C172.581 74.6133 173.201 75.2667 173.641 76.08C174.081 76.8933 174.301 77.7667 174.301 78.7C174.301 78.86 174.294 79.0133 174.281 79.16C174.268 79.2933 174.254 79.4067 174.241 79.5H165.861C165.901 80.1133 166.068 80.6533 166.361 81.12C166.668 81.5733 167.054 81.9333 167.521 82.2C167.988 82.4533 168.488 82.58 169.021 82.58C169.608 82.58 170.161 82.4333 170.681 82.14C171.214 81.8467 171.574 81.46 171.761 80.98L173.641 81.52C173.414 82.0267 173.068 82.4867 172.601 82.9C172.148 83.3 171.608 83.62 170.981 83.86C170.354 84.0867 169.674 84.2 168.941 84.2ZM165.801 78.04H172.121C172.081 77.44 171.908 76.9133 171.601 76.46C171.308 75.9933 170.928 75.6333 170.461 75.38C170.008 75.1133 169.501 74.98 168.941 74.98C168.394 74.98 167.888 75.1133 167.421 75.38C166.968 75.6333 166.594 75.9933 166.301 76.46C166.008 76.9133 165.841 77.44 165.801 78.04ZM176.095 84V73.54H178.375L181.975 80L185.595 73.54H187.835V84H185.735V76.64L182.655 82.14H181.275L178.175 76.64V84H176.095ZM189.81 84L192.61 79.86C191.957 79.7 191.437 79.3667 191.05 78.86C190.664 78.3533 190.47 77.6733 190.47 76.82C190.47 76.1667 190.617 75.5933 190.91 75.1C191.217 74.6067 191.644 74.22 192.19 73.94C192.737 73.66 193.37 73.52 194.09 73.52H198.69V84H196.49V80.22H194.77L192.21 84H189.81ZM194.31 78.62H196.49V75.22H194.45C193.89 75.22 193.444 75.3733 193.11 75.68C192.79 75.9867 192.63 76.3867 192.63 76.88C192.63 77.3733 192.77 77.7867 193.05 78.12C193.344 78.4533 193.764 78.62 194.31 78.62ZM210.991 84.2C210.164 84.2 209.424 84.06 208.771 83.78C208.117 83.4867 207.551 83.0867 207.071 82.58C206.604 82.0733 206.244 81.5 205.991 80.86C205.737 80.2067 205.611 79.5133 205.611 78.78C205.611 78.0467 205.737 77.3533 205.991 76.7C206.244 76.0467 206.604 75.4733 207.071 74.98C207.551 74.4733 208.117 74.08 208.771 73.8C209.437 73.5067 210.177 73.36 210.991 73.36C211.804 73.36 212.537 73.5067 213.191 73.8C213.857 74.08 214.424 74.4733 214.891 74.98C215.371 75.4733 215.737 76.0467 215.991 76.7C216.244 77.3533 216.371 78.0467 216.371 78.78C216.371 79.5133 216.244 80.2067 215.991 80.86C215.737 81.5 215.371 82.0733 214.891 82.58C214.424 83.0867 213.857 83.4867 213.191 83.78C212.537 84.06 211.804 84.2 210.991 84.2ZM207.871 78.8C207.871 79.4667 208.011 80.0667 208.291 80.6C208.571 81.1333 208.944 81.5533 209.411 81.86C209.877 82.1667 210.404 82.32 210.991 82.32C211.564 82.32 212.084 82.1667 212.551 81.86C213.031 81.54 213.411 81.1133 213.691 80.58C213.971 80.0333 214.111 79.4333 214.111 78.78C214.111 78.1133 213.971 77.5133 213.691 76.98C213.411 76.4467 213.031 76.0267 212.551 75.72C212.084 75.4 211.564 75.24 210.991 75.24C210.404 75.24 209.877 75.4 209.411 75.72C208.944 76.04 208.571 76.4667 208.291 77C208.011 77.52 207.871 78.12 207.871 78.8ZM218.322 84V73.54H220.522V77.7H225.382V73.54H227.582V84H225.382V79.6H220.522V84H218.322ZM235.296 84.2C233.549 84.2 232.223 83.6733 231.316 82.62C230.409 81.5667 229.956 80.06 229.956 78.1C229.956 76.82 230.063 75.74 230.276 74.86C230.503 73.9667 230.829 73.2333 231.256 72.66C231.696 72.0867 232.236 71.62 232.876 71.26C233.529 70.8867 234.283 70.5867 235.136 70.36L239.596 69.12L239.676 70.96L235.296 72.2C234.603 72.4133 234.009 72.6933 233.516 73.04C233.036 73.3867 232.656 73.84 232.376 74.4C232.096 74.9467 231.909 75.64 231.816 76.48C232.189 75.8 232.723 75.2667 233.416 74.88C234.109 74.4933 234.929 74.3 235.876 74.3C236.849 74.3 237.689 74.5067 238.396 74.92C239.103 75.32 239.649 75.88 240.036 76.6C240.423 77.32 240.616 78.1467 240.616 79.08C240.616 80.0933 240.409 80.9867 239.996 81.76C239.596 82.52 238.996 83.12 238.196 83.56C237.409 83.9867 236.443 84.2 235.296 84.2ZM235.296 82.32C236.269 82.32 237.023 82.0333 237.556 81.46C238.103 80.8867 238.376 80.1267 238.376 79.18C238.376 78.2733 238.103 77.5333 237.556 76.96C237.023 76.3733 236.269 76.08 235.296 76.08C234.723 76.08 234.203 76.2067 233.736 76.46C233.269 76.7 232.903 77.0533 232.636 77.52C232.369 77.9733 232.236 78.5267 232.236 79.18C232.236 79.7933 232.356 80.34 232.596 80.82C232.836 81.2867 233.183 81.6533 233.636 81.92C234.089 82.1867 234.643 82.32 235.296 82.32ZM247.299 84.2C246.473 84.2 245.733 84.06 245.079 83.78C244.426 83.4867 243.859 83.0867 243.379 82.58C242.913 82.0733 242.553 81.5 242.299 80.86C242.046 80.2067 241.919 79.5133 241.919 78.78C241.919 78.0467 242.046 77.3533 242.299 76.7C242.553 76.0467 242.913 75.4733 243.379 74.98C243.859 74.4733 244.426 74.08 245.079 73.8C245.746 73.5067 246.486 73.36 247.299 73.36C248.113 73.36 248.846 73.5067 249.499 73.8C250.166 74.08 250.733 74.4733 251.199 74.98C251.679 75.4733 252.046 76.0467 252.299 76.7C252.553 77.3533 252.679 78.0467 252.679 78.78C252.679 79.5133 252.553 80.2067 252.299 80.86C252.046 81.5 251.679 82.0733 251.199 82.58C250.733 83.0867 250.166 83.4867 249.499 83.78C248.846 84.06 248.113 84.2 247.299 84.2ZM244.179 78.8C244.179 79.4667 244.319 80.0667 244.599 80.6C244.879 81.1333 245.253 81.5533 245.719 81.86C246.186 82.1667 246.713 82.32 247.299 82.32C247.873 82.32 248.393 82.1667 248.859 81.86C249.339 81.54 249.719 81.1133 249.999 80.58C250.279 80.0333 250.419 79.4333 250.419 78.78C250.419 78.1133 250.279 77.5133 249.999 76.98C249.719 76.4467 249.339 76.0267 248.859 75.72C248.393 75.4 247.873 75.24 247.299 75.24C246.713 75.24 246.186 75.4 245.719 75.72C245.253 76.04 244.879 76.4667 244.599 77C244.319 77.52 244.179 78.12 244.179 78.8ZM260.571 84.2C259.731 84.2 258.991 84 258.351 83.6C257.711 83.2 257.204 82.68 256.831 82.04V88.26H254.631V73.54H256.571V75.42C256.971 74.7933 257.491 74.2933 258.131 73.92C258.771 73.5467 259.484 73.36 260.271 73.36C260.991 73.36 261.651 73.5067 262.251 73.8C262.851 74.08 263.371 74.4733 263.811 74.98C264.251 75.4867 264.591 76.0667 264.831 76.72C265.084 77.36 265.211 78.04 265.211 78.76C265.211 79.76 265.011 80.6733 264.611 81.5C264.224 82.3267 263.677 82.9867 262.971 83.48C262.277 83.96 261.477 84.2 260.571 84.2ZM259.851 82.32C260.317 82.32 260.737 82.22 261.111 82.02C261.497 81.82 261.824 81.5533 262.091 81.22C262.371 80.8867 262.584 80.5067 262.731 80.08C262.877 79.6533 262.951 79.2133 262.951 78.76C262.951 78.28 262.871 77.8267 262.711 77.4C262.551 76.9733 262.317 76.6 262.011 76.28C261.717 75.96 261.371 75.7067 260.971 75.52C260.584 75.3333 260.157 75.24 259.691 75.24C259.411 75.24 259.117 75.2933 258.811 75.4C258.504 75.5067 258.217 75.6533 257.951 75.84C257.684 76.0267 257.451 76.2467 257.251 76.5C257.051 76.7533 256.911 77.02 256.831 77.3V80.04C257.017 80.4667 257.264 80.8533 257.571 81.2C257.877 81.5333 258.231 81.8067 258.631 82.02C259.031 82.22 259.437 82.32 259.851 82.32ZM266.189 86.5V82.06H266.429C266.709 82.06 266.969 81.98 267.209 81.82C267.449 81.66 267.662 81.3867 267.849 81C268.036 80.6 268.189 80.0533 268.309 79.36C268.429 78.6533 268.502 77.7667 268.529 76.7L268.649 73.54H276.109V82.06H277.549V86.5H275.609V84H268.109V86.5H266.189ZM269.329 82.06H273.909V75.44H270.589L270.529 76.9C270.489 77.9133 270.416 78.7667 270.309 79.46C270.216 80.1533 270.082 80.7067 269.909 81.12C269.749 81.5333 269.556 81.8467 269.329 82.06ZM279.416 84V73.56H281.616V81.06L286.916 73.54H288.916V84H286.716V76.66L281.476 84H279.416ZM291.545 84V73.54H293.745V77.7H298.605V73.54H300.805V84H298.605V79.6H293.745V84H291.545ZM303.459 84V73.54H310.139V75.48H305.659V84H303.459ZM311.039 80.94C311.039 80.2733 311.225 79.6933 311.599 79.2C311.985 78.6933 312.512 78.3067 313.179 78.04C313.845 77.76 314.619 77.62 315.499 77.62C315.965 77.62 316.439 77.6533 316.919 77.72C317.412 77.7867 317.845 77.8933 318.219 78.04V77.38C318.219 76.6467 317.999 76.0733 317.559 75.66C317.119 75.2467 316.485 75.04 315.659 75.04C315.072 75.04 314.519 75.1467 313.999 75.36C313.479 75.56 312.925 75.8467 312.339 76.22L311.599 74.74C312.292 74.2733 312.985 73.9267 313.679 73.7C314.385 73.4733 315.125 73.36 315.899 73.36C317.299 73.36 318.399 73.7333 319.199 74.48C320.012 75.2133 320.419 76.26 320.419 77.62V81.52C320.419 81.7733 320.459 81.9533 320.539 82.06C320.632 82.1667 320.785 82.2267 320.999 82.24V84C320.799 84.04 320.619 84.0667 320.459 84.08C320.299 84.0933 320.165 84.1 320.059 84.1C319.592 84.1 319.239 83.9867 318.999 83.76C318.759 83.5333 318.619 83.2667 318.579 82.96L318.519 82.36C318.065 82.9467 317.485 83.4 316.779 83.72C316.072 84.04 315.359 84.2 314.639 84.2C313.945 84.2 313.325 84.06 312.779 83.78C312.232 83.4867 311.805 83.0933 311.499 82.6C311.192 82.1067 311.039 81.5533 311.039 80.94ZM317.699 81.58C317.859 81.4067 317.985 81.2333 318.079 81.06C318.172 80.8867 318.219 80.7333 318.219 80.6V79.4C317.845 79.2533 317.452 79.1467 317.039 79.08C316.625 79 316.219 78.96 315.819 78.96C315.019 78.96 314.365 79.12 313.859 79.44C313.365 79.76 313.119 80.2 313.119 80.76C313.119 81.0667 313.199 81.36 313.359 81.64C313.532 81.92 313.772 82.1467 314.079 82.32C314.399 82.4933 314.792 82.58 315.259 82.58C315.739 82.58 316.199 82.4867 316.639 82.3C317.079 82.1133 317.432 81.8733 317.699 81.58Z" fill="#202020"/>
</svg>
