<svg width="370" height="104" viewBox="0 0 370 104" fill="none" xmlns="http://www.w3.org/2000/svg">
<rect width="370" height="104" rx="18.8686" fill="#FFBFBF"/>
<mask id="mask0_114_6342" style="mask-type:alpha" maskUnits="userSpaceOnUse" x="0" y="0" width="370" height="102">
<rect width="370" height="102" rx="18.8686" fill="#E1ECE4"/>
</mask>
<g mask="url(#mask0_114_6342)">
<ellipse cx="73.7205" cy="103.76" rx="104.72" ry="89.7604" fill="#FFAEAE"/>
<ellipse cx="113.527" cy="108.166" rx="65.5268" ry="56.1659" fill="#FF9D9D"/>
<path d="M132.994 48.4287C132.994 46.7207 133.12 45.2227 133.372 43.9347C133.624 42.6467 134.016 41.4847 134.548 40.4487C135.08 39.4127 135.752 38.5027 136.564 37.7187C137.376 36.9347 138.314 36.2207 139.378 35.5767C140.414 34.9607 141.478 34.3867 142.57 33.8547C143.69 33.3227 144.726 32.7627 145.678 32.1747C146.63 31.5867 147.386 30.9007 147.946 30.1167C148.534 29.3047 148.828 28.3247 148.828 27.1767C148.828 26.2527 148.632 25.4407 148.24 24.7407C147.876 24.0407 147.316 23.4947 146.56 23.1027C145.832 22.6827 144.894 22.4727 143.746 22.4727C142.57 22.4727 141.478 22.6827 140.47 23.1027C139.49 23.4947 138.622 23.9847 137.866 24.5727C137.138 25.1607 136.55 25.7347 136.102 26.2947L133.162 23.2287C133.442 22.8927 133.89 22.4447 134.506 21.8847C135.15 21.3247 135.934 20.7647 136.858 20.2047C137.81 19.6447 138.902 19.1827 140.134 18.8187C141.366 18.4267 142.752 18.2307 144.292 18.2307C146.42 18.2307 148.198 18.6227 149.626 19.4067C151.082 20.1627 152.174 21.2127 152.902 22.5567C153.658 23.8727 154.036 25.3567 154.036 27.0087C154.036 28.3527 153.798 29.5287 153.322 30.5367C152.846 31.5167 152.216 32.3707 151.432 33.0987C150.676 33.7987 149.822 34.4287 148.87 34.9887C147.946 35.5487 147.022 36.0807 146.098 36.5847C144.502 37.3967 143.214 38.1247 142.234 38.7687C141.282 39.4127 140.526 40.0287 139.966 40.6167C139.434 41.2047 139.056 41.7927 138.832 42.3807C138.608 42.9687 138.454 43.5987 138.37 44.2707H154.078V48.4287H132.994ZM181.786 48.4287V40.0707C180.946 40.4627 180.078 40.7567 179.182 40.9527C178.286 41.1207 177.278 41.2047 176.158 41.2047C173.806 41.2047 171.986 40.5887 170.698 39.3567C169.438 38.0967 168.808 36.2347 168.808 33.7707V26.4627H173.428V33.1827C173.428 34.7227 173.75 35.8567 174.394 36.5847C175.038 37.2847 176.074 37.6347 177.502 37.6347C178.286 37.6347 179.07 37.5507 179.854 37.3827C180.638 37.2147 181.282 36.9907 181.786 36.7107V26.4627H186.448V48.4287H181.786ZM201.992 48.8487C200.284 48.8487 198.73 48.5547 197.33 47.9667C195.958 47.3507 194.768 46.5247 193.76 45.4887C192.752 44.4247 191.968 43.2207 191.408 41.8767C190.876 40.5047 190.61 39.0487 190.61 37.5087C190.61 35.4367 191.086 33.5467 192.038 31.8387C192.99 30.1027 194.32 28.7167 196.028 27.6807C197.736 26.6167 199.738 26.0847 202.034 26.0847C204.33 26.0847 206.304 26.6167 207.956 27.6807C209.636 28.7167 210.938 30.0887 211.862 31.7967C212.786 33.5047 213.248 35.3387 213.248 37.2987C213.248 37.6347 213.234 37.9567 213.206 38.2647C213.178 38.5447 213.15 38.7827 213.122 38.9787H195.524C195.608 40.2667 195.958 41.4007 196.574 42.3807C197.218 43.3327 198.03 44.0887 199.01 44.6487C199.99 45.1807 201.04 45.4467 202.16 45.4467C203.392 45.4467 204.554 45.1387 205.646 44.5227C206.766 43.9067 207.522 43.0947 207.914 42.0867L211.862 43.2207C211.386 44.2847 210.658 45.2507 209.678 46.1187C208.726 46.9587 207.592 47.6307 206.276 48.1347C204.96 48.6107 203.532 48.8487 201.992 48.8487ZM195.398 35.9127H208.67C208.586 34.6527 208.222 33.5467 207.578 32.5947C206.962 31.6147 206.164 30.8587 205.184 30.3267C204.232 29.7667 203.168 29.4867 201.992 29.4867C200.844 29.4867 199.78 29.7667 198.8 30.3267C197.848 30.8587 197.064 31.6147 196.448 32.5947C195.832 33.5467 195.482 34.6527 195.398 35.9127ZM215.252 48.6387V44.5227C215.952 44.5227 216.582 44.3547 217.142 44.0187C217.702 43.6547 218.192 43.0667 218.612 42.2547C219.032 41.4147 219.368 40.2527 219.62 38.7687C219.872 37.2847 220.04 35.3947 220.124 33.0987L220.418 26.4627H236.084V48.4287H231.464V30.5367H224.492L224.408 33.5187C224.296 36.4587 224.03 38.9087 223.61 40.8687C223.19 42.8007 222.602 44.3407 221.846 45.4887C221.118 46.6087 220.194 47.4207 219.074 47.9247C217.982 48.4007 216.708 48.6387 215.252 48.6387Z" fill="#202020"/>
</g>
<path d="M75.7227 84.1C74.696 84.1 73.7693 83.9 72.9427 83.5C72.116 83.1 71.4027 82.56 70.8027 81.88C70.2027 81.1867 69.736 80.4133 69.4027 79.56C69.0827 78.6933 68.9227 77.8067 68.9227 76.9C68.9227 75.9533 69.096 75.0533 69.4427 74.2C69.7893 73.3333 70.2693 72.5667 70.8827 71.9C71.496 71.22 72.216 70.6867 73.0427 70.3C73.8827 69.9 74.7893 69.7 75.7627 69.7C76.776 69.7 77.696 69.9067 78.5227 70.32C79.3627 70.7333 80.076 71.2867 80.6627 71.98C81.2627 72.6733 81.7227 73.4467 82.0427 74.3C82.376 75.1533 82.5427 76.0267 82.5427 76.92C82.5427 77.8667 82.3693 78.7733 82.0227 79.64C81.6893 80.4933 81.216 81.26 80.6027 81.94C79.9893 82.6067 79.2627 83.1333 78.4227 83.52C77.596 83.9067 76.696 84.1 75.7227 84.1ZM71.2027 76.9C71.2027 77.5667 71.3093 78.2133 71.5227 78.84C71.736 79.4667 72.036 80.0267 72.4227 80.52C72.8227 81 73.3027 81.38 73.8627 81.66C74.4227 81.94 75.0493 82.08 75.7427 82.08C76.4627 82.08 77.1027 81.9333 77.6627 81.64C78.2227 81.3467 78.6893 80.9533 79.0627 80.46C79.4493 79.9533 79.7427 79.3933 79.9427 78.78C80.1427 78.1533 80.2427 77.5267 80.2427 76.9C80.2427 76.2333 80.136 75.5933 79.9227 74.98C79.7227 74.3533 79.4227 73.8 79.0227 73.32C78.6227 72.8267 78.1427 72.44 77.5827 72.16C77.036 71.88 76.4227 71.74 75.7427 71.74C75.0227 71.74 74.3827 71.8867 73.8227 72.18C73.2627 72.4733 72.7893 72.8667 72.4027 73.36C72.016 73.8533 71.716 74.4067 71.5027 75.02C71.3027 75.6333 71.2027 76.26 71.2027 76.9ZM87.0617 84V75.48H83.6017V73.54H92.7417V75.48H89.2617V84H87.0617ZM99.1264 84.2C98.3131 84.2 97.5731 84.06 96.9064 83.78C96.2531 83.4867 95.6864 83.0867 95.2064 82.58C94.7264 82.0733 94.3531 81.4933 94.0864 80.84C93.8331 80.1867 93.7064 79.4933 93.7064 78.76C93.7064 77.7733 93.9264 76.8733 94.3664 76.06C94.8197 75.2467 95.4464 74.5933 96.2464 74.1C97.0597 73.6067 98.0197 73.36 99.1264 73.36C100.193 73.36 101.12 73.6 101.906 74.08C102.706 74.5467 103.293 75.1733 103.666 75.96L101.526 76.64C101.286 76.2 100.946 75.86 100.506 75.62C100.08 75.3667 99.6064 75.24 99.0864 75.24C98.4997 75.24 97.9664 75.3933 97.4864 75.7C97.0197 75.9933 96.6464 76.4067 96.3664 76.94C96.0997 77.46 95.9664 78.0667 95.9664 78.76C95.9664 79.4267 96.1064 80.0333 96.3864 80.58C96.6664 81.1133 97.0397 81.54 97.5064 81.86C97.9864 82.1667 98.5197 82.32 99.1064 82.32C99.4664 82.32 99.8131 82.26 100.146 82.14C100.493 82.0067 100.793 81.8333 101.046 81.62C101.3 81.3933 101.48 81.1467 101.586 80.88L103.746 81.52C103.52 82.04 103.18 82.5 102.726 82.9C102.286 83.3 101.76 83.62 101.146 83.86C100.546 84.0867 99.8731 84.2 99.1264 84.2ZM108.038 84V75.48H104.578V73.54H113.718V75.48H110.238V84H108.038ZM114.583 80.94C114.583 80.2733 114.77 79.6933 115.143 79.2C115.53 78.6933 116.057 78.3067 116.723 78.04C117.39 77.76 118.163 77.62 119.043 77.62C119.51 77.62 119.983 77.6533 120.463 77.72C120.957 77.7867 121.39 77.8933 121.763 78.04V77.38C121.763 76.6467 121.543 76.0733 121.103 75.66C120.663 75.2467 120.03 75.04 119.203 75.04C118.617 75.04 118.063 75.1467 117.543 75.36C117.023 75.56 116.47 75.8467 115.883 76.22L115.143 74.74C115.837 74.2733 116.53 73.9267 117.223 73.7C117.93 73.4733 118.67 73.36 119.443 73.36C120.843 73.36 121.943 73.7333 122.743 74.48C123.557 75.2133 123.963 76.26 123.963 77.62V81.52C123.963 81.7733 124.003 81.9533 124.083 82.06C124.177 82.1667 124.33 82.2267 124.543 82.24V84C124.343 84.04 124.163 84.0667 124.003 84.08C123.843 84.0933 123.71 84.1 123.603 84.1C123.137 84.1 122.783 83.9867 122.543 83.76C122.303 83.5333 122.163 83.2667 122.123 82.96L122.063 82.36C121.61 82.9467 121.03 83.4 120.323 83.72C119.617 84.04 118.903 84.2 118.183 84.2C117.49 84.2 116.87 84.06 116.323 83.78C115.777 83.4867 115.35 83.0933 115.043 82.6C114.737 82.1067 114.583 81.5533 114.583 80.94ZM121.243 81.58C121.403 81.4067 121.53 81.2333 121.623 81.06C121.717 80.8867 121.763 80.7333 121.763 80.6V79.4C121.39 79.2533 120.997 79.1467 120.583 79.08C120.17 79 119.763 78.96 119.363 78.96C118.563 78.96 117.91 79.12 117.403 79.44C116.91 79.76 116.663 80.2 116.663 80.76C116.663 81.0667 116.743 81.36 116.903 81.64C117.077 81.92 117.317 82.1467 117.623 82.32C117.943 82.4933 118.337 82.58 118.803 82.58C119.283 82.58 119.743 82.4867 120.183 82.3C120.623 82.1133 120.977 81.8733 121.243 81.58ZM135.633 84.2C134.713 84.2 133.893 84.0067 133.173 83.62C132.466 83.2333 131.893 82.7067 131.453 82.04C131.026 81.36 130.753 80.5933 130.633 79.74H128.833V84H126.632V73.54H128.833V77.82H130.633C130.753 76.94 131.033 76.1667 131.473 75.5C131.926 74.82 132.506 74.2933 133.213 73.92C133.919 73.5467 134.726 73.36 135.633 73.36C136.726 73.36 137.659 73.6067 138.433 74.1C139.206 74.5933 139.799 75.2467 140.213 76.06C140.626 76.8733 140.833 77.78 140.833 78.78C140.833 79.8067 140.619 80.7267 140.193 81.54C139.779 82.3533 139.179 83 138.393 83.48C137.619 83.96 136.699 84.2 135.633 84.2ZM135.633 82.32C136.219 82.32 136.733 82.1733 137.173 81.88C137.613 81.5733 137.959 81.16 138.213 80.64C138.466 80.1067 138.593 79.4867 138.593 78.78C138.593 78.06 138.466 77.44 138.213 76.92C137.959 76.3867 137.606 75.9733 137.153 75.68C136.699 75.3867 136.193 75.24 135.633 75.24C135.073 75.24 134.573 75.3867 134.133 75.68C133.706 75.9733 133.373 76.3867 133.133 76.92C132.893 77.4533 132.773 78.0733 132.773 78.78C132.773 79.5 132.893 80.1267 133.133 80.66C133.386 81.1933 133.726 81.6067 134.153 81.9C134.593 82.18 135.086 82.32 135.633 82.32ZM145.284 84V75.48H141.824V73.54H150.964V75.48H147.484V84H145.284ZM157.55 84V73.54H159.75V77.7H164.61V73.54H166.81V84H164.61V79.6H159.75V84H157.55ZM168.705 80.94C168.705 80.2733 168.891 79.6933 169.265 79.2C169.651 78.6933 170.178 78.3067 170.845 78.04C171.511 77.76 172.285 77.62 173.165 77.62C173.631 77.62 174.105 77.6533 174.585 77.72C175.078 77.7867 175.511 77.8933 175.885 78.04V77.38C175.885 76.6467 175.665 76.0733 175.225 75.66C174.785 75.2467 174.151 75.04 173.325 75.04C172.738 75.04 172.185 75.1467 171.665 75.36C171.145 75.56 170.591 75.8467 170.005 76.22L169.265 74.74C169.958 74.2733 170.651 73.9267 171.345 73.7C172.051 73.4733 172.791 73.36 173.565 73.36C174.965 73.36 176.065 73.7333 176.865 74.48C177.678 75.2133 178.085 76.26 178.085 77.62V81.52C178.085 81.7733 178.125 81.9533 178.205 82.06C178.298 82.1667 178.451 82.2267 178.665 82.24V84C178.465 84.04 178.285 84.0667 178.125 84.08C177.965 84.0933 177.831 84.1 177.725 84.1C177.258 84.1 176.905 83.9867 176.665 83.76C176.425 83.5333 176.285 83.2667 176.245 82.96L176.185 82.36C175.731 82.9467 175.151 83.4 174.445 83.72C173.738 84.04 173.025 84.2 172.305 84.2C171.611 84.2 170.991 84.06 170.445 83.78C169.898 83.4867 169.471 83.0933 169.165 82.6C168.858 82.1067 168.705 81.5533 168.705 80.94ZM175.365 81.58C175.525 81.4067 175.651 81.2333 175.745 81.06C175.838 80.8867 175.885 80.7333 175.885 80.6V79.4C175.511 79.2533 175.118 79.1467 174.705 79.08C174.291 79 173.885 78.96 173.485 78.96C172.685 78.96 172.031 79.12 171.525 79.44C171.031 79.76 170.785 80.2 170.785 80.76C170.785 81.0667 170.865 81.36 171.025 81.64C171.198 81.92 171.438 82.1467 171.745 82.32C172.065 82.4933 172.458 82.58 172.925 82.58C173.405 82.58 173.865 82.4867 174.305 82.3C174.745 82.1133 175.098 81.8733 175.365 81.58ZM190.395 84.2C189.568 84.2 188.828 84.06 188.175 83.78C187.522 83.4867 186.955 83.0867 186.475 82.58C186.008 82.0733 185.648 81.5 185.395 80.86C185.142 80.2067 185.015 79.5133 185.015 78.78C185.015 78.0467 185.142 77.3533 185.395 76.7C185.648 76.0467 186.008 75.4733 186.475 74.98C186.955 74.4733 187.522 74.08 188.175 73.8C188.842 73.5067 189.582 73.36 190.395 73.36C191.208 73.36 191.942 73.5067 192.595 73.8C193.262 74.08 193.828 74.4733 194.295 74.98C194.775 75.4733 195.142 76.0467 195.395 76.7C195.648 77.3533 195.775 78.0467 195.775 78.78C195.775 79.5133 195.648 80.2067 195.395 80.86C195.142 81.5 194.775 82.0733 194.295 82.58C193.828 83.0867 193.262 83.4867 192.595 83.78C191.942 84.06 191.208 84.2 190.395 84.2ZM187.275 78.8C187.275 79.4667 187.415 80.0667 187.695 80.6C187.975 81.1333 188.348 81.5533 188.815 81.86C189.282 82.1667 189.808 82.32 190.395 82.32C190.968 82.32 191.488 82.1667 191.955 81.86C192.435 81.54 192.815 81.1133 193.095 80.58C193.375 80.0333 193.515 79.4333 193.515 78.78C193.515 78.1133 193.375 77.5133 193.095 76.98C192.815 76.4467 192.435 76.0267 191.955 75.72C191.488 75.4 190.968 75.24 190.395 75.24C189.808 75.24 189.282 75.4 188.815 75.72C188.348 76.04 187.975 76.4667 187.695 77C187.415 77.52 187.275 78.12 187.275 78.8ZM197.726 84V73.54H199.926V77.7H204.786V73.54H206.986V84H204.786V79.6H199.926V84H197.726ZM214.7 84.2C212.954 84.2 211.627 83.6733 210.72 82.62C209.814 81.5667 209.36 80.06 209.36 78.1C209.36 76.82 209.467 75.74 209.68 74.86C209.907 73.9667 210.234 73.2333 210.66 72.66C211.1 72.0867 211.64 71.62 212.28 71.26C212.934 70.8867 213.687 70.5867 214.54 70.36L219 69.12L219.08 70.96L214.7 72.2C214.007 72.4133 213.414 72.6933 212.92 73.04C212.44 73.3867 212.06 73.84 211.78 74.4C211.5 74.9467 211.314 75.64 211.22 76.48C211.594 75.8 212.127 75.2667 212.82 74.88C213.514 74.4933 214.334 74.3 215.28 74.3C216.254 74.3 217.094 74.5067 217.8 74.92C218.507 75.32 219.054 75.88 219.44 76.6C219.827 77.32 220.02 78.1467 220.02 79.08C220.02 80.0933 219.814 80.9867 219.4 81.76C219 82.52 218.4 83.12 217.6 83.56C216.814 83.9867 215.847 84.2 214.7 84.2ZM214.7 82.32C215.674 82.32 216.427 82.0333 216.96 81.46C217.507 80.8867 217.78 80.1267 217.78 79.18C217.78 78.2733 217.507 77.5333 216.96 76.96C216.427 76.3733 215.674 76.08 214.7 76.08C214.127 76.08 213.607 76.2067 213.14 76.46C212.674 76.7 212.307 77.0533 212.04 77.52C211.774 77.9733 211.64 78.5267 211.64 79.18C211.64 79.7933 211.76 80.34 212 80.82C212.24 81.2867 212.587 81.6533 213.04 81.92C213.494 82.1867 214.047 82.32 214.7 82.32ZM226.704 84.2C225.877 84.2 225.137 84.06 224.484 83.78C223.83 83.4867 223.264 83.0867 222.784 82.58C222.317 82.0733 221.957 81.5 221.704 80.86C221.45 80.2067 221.324 79.5133 221.324 78.78C221.324 78.0467 221.45 77.3533 221.704 76.7C221.957 76.0467 222.317 75.4733 222.784 74.98C223.264 74.4733 223.83 74.08 224.484 73.8C225.15 73.5067 225.89 73.36 226.704 73.36C227.517 73.36 228.25 73.5067 228.904 73.8C229.57 74.08 230.137 74.4733 230.604 74.98C231.084 75.4733 231.45 76.0467 231.704 76.7C231.957 77.3533 232.084 78.0467 232.084 78.78C232.084 79.5133 231.957 80.2067 231.704 80.86C231.45 81.5 231.084 82.0733 230.604 82.58C230.137 83.0867 229.57 83.4867 228.904 83.78C228.25 84.06 227.517 84.2 226.704 84.2ZM223.584 78.8C223.584 79.4667 223.724 80.0667 224.004 80.6C224.284 81.1333 224.657 81.5533 225.124 81.86C225.59 82.1667 226.117 82.32 226.704 82.32C227.277 82.32 227.797 82.1667 228.264 81.86C228.744 81.54 229.124 81.1133 229.404 80.58C229.684 80.0333 229.824 79.4333 229.824 78.78C229.824 78.1133 229.684 77.5133 229.404 76.98C229.124 76.4467 228.744 76.0267 228.264 75.72C227.797 75.4 227.277 75.24 226.704 75.24C226.117 75.24 225.59 75.4 225.124 75.72C224.657 76.04 224.284 76.4667 224.004 77C223.724 77.52 223.584 78.12 223.584 78.8ZM239.975 84.2C239.135 84.2 238.395 84 237.755 83.6C237.115 83.2 236.608 82.68 236.235 82.04V88.26H234.035V73.54H235.975V75.42C236.375 74.7933 236.895 74.2933 237.535 73.92C238.175 73.5467 238.888 73.36 239.675 73.36C240.395 73.36 241.055 73.5067 241.655 73.8C242.255 74.08 242.775 74.4733 243.215 74.98C243.655 75.4867 243.995 76.0667 244.235 76.72C244.488 77.36 244.615 78.04 244.615 78.76C244.615 79.76 244.415 80.6733 244.015 81.5C243.628 82.3267 243.082 82.9867 242.375 83.48C241.682 83.96 240.882 84.2 239.975 84.2ZM239.255 82.32C239.722 82.32 240.142 82.22 240.515 82.02C240.902 81.82 241.228 81.5533 241.495 81.22C241.775 80.8867 241.988 80.5067 242.135 80.08C242.282 79.6533 242.355 79.2133 242.355 78.76C242.355 78.28 242.275 77.8267 242.115 77.4C241.955 76.9733 241.722 76.6 241.415 76.28C241.122 75.96 240.775 75.7067 240.375 75.52C239.988 75.3333 239.562 75.24 239.095 75.24C238.815 75.24 238.522 75.2933 238.215 75.4C237.908 75.5067 237.622 75.6533 237.355 75.84C237.088 76.0267 236.855 76.2467 236.655 76.5C236.455 76.7533 236.315 77.02 236.235 77.3V80.04C236.422 80.4667 236.668 80.8533 236.975 81.2C237.282 81.5333 237.635 81.8067 238.035 82.02C238.435 82.22 238.842 82.32 239.255 82.32ZM245.593 86.5V82.06H245.833C246.113 82.06 246.373 81.98 246.613 81.82C246.853 81.66 247.067 81.3867 247.253 81C247.44 80.6 247.593 80.0533 247.713 79.36C247.833 78.6533 247.907 77.7667 247.933 76.7L248.053 73.54H255.513V82.06H256.953V86.5H255.013V84H247.513V86.5H245.593ZM248.733 82.06H253.313V75.44H249.993L249.933 76.9C249.893 77.9133 249.82 78.7667 249.713 79.46C249.62 80.1533 249.487 80.7067 249.313 81.12C249.153 81.5333 248.96 81.8467 248.733 82.06ZM258.82 84V73.56H261.02V81.06L266.32 73.54H268.32V84H266.12V76.66L260.88 84H258.82ZM270.949 84V73.54H273.149V77.7H278.009V73.54H280.209V84H278.009V79.6H273.149V84H270.949ZM282.863 84V73.54H289.543V75.48H285.063V84H282.863ZM295.943 84.2C295.129 84.2 294.389 84.06 293.723 83.78C293.069 83.4867 292.503 83.0933 292.023 82.6C291.543 82.0933 291.169 81.52 290.903 80.88C290.649 80.2267 290.523 79.5333 290.523 78.8C290.523 77.8133 290.749 76.9133 291.203 76.1C291.656 75.2733 292.289 74.6133 293.103 74.12C293.916 73.6133 294.869 73.36 295.963 73.36C297.056 73.36 297.996 73.6133 298.783 74.12C299.583 74.6133 300.203 75.2667 300.643 76.08C301.083 76.8933 301.303 77.7667 301.303 78.7C301.303 78.86 301.296 79.0133 301.283 79.16C301.269 79.2933 301.256 79.4067 301.243 79.5H292.863C292.903 80.1133 293.069 80.6533 293.363 81.12C293.669 81.5733 294.056 81.9333 294.523 82.2C294.989 82.4533 295.489 82.58 296.023 82.58C296.609 82.58 297.163 82.4333 297.683 82.14C298.216 81.8467 298.576 81.46 298.763 80.98L300.643 81.52C300.416 82.0267 300.069 82.4867 299.603 82.9C299.149 83.3 298.609 83.62 297.983 83.86C297.356 84.0867 296.676 84.2 295.943 84.2ZM292.803 78.04H299.123C299.083 77.44 298.909 76.9133 298.603 76.46C298.309 75.9933 297.929 75.6333 297.463 75.38C297.009 75.1133 296.503 74.98 295.943 74.98C295.396 74.98 294.889 75.1133 294.423 75.38C293.969 75.6333 293.596 75.9933 293.303 76.46C293.009 76.9133 292.843 77.44 292.803 78.04Z" fill="#202020"/>
</svg>
